<svg width="142" height="234" viewBox="0 0 142 234" fill="none" xmlns="http://www.w3.org/2000/svg">
<path d="M158.23 250H0.0296883V223.4L86.4797 135.2C109.58 112.1 121.13 92.2667 121.13 75.7C121.13 62.1667 116.93 51.55 108.53 43.85C100.363 35.9167 90.0964 31.95 77.7297 31.95C54.6297 31.95 37.8297 42.9167 27.3297 64.85L0.0296883 48.75C7.49636 33.1167 17.9964 21.2167 31.5297 13.05C45.063 4.64998 60.3464 0.449979 77.3797 0.449979C98.1464 0.449979 115.996 7.21665 130.93 20.75C146.096 34.5167 153.68 52.7167 153.68 75.35C153.68 100.083 139.096 127.033 109.93 156.2L47.2797 218.5H158.23V250Z" fill="url(#paint0_linear_161_33)"/>
<defs>
<linearGradient id="paint0_linear_161_33" x1="136.337" y1="41.4901" x2="245.673" y2="97.8378" gradientUnits="userSpaceOnUse">
<stop stop-color="#FAFCFC"/>
<stop offset="1" stop-color="#EDF3F5"/>
</linearGradient>
</defs>
</svg>
