<svg width="155" height="230" viewBox="0 0 155 230" fill="none" xmlns="http://www.w3.org/2000/svg">
<path d="M154.495 28.7L101.295 100.45C120.429 103.95 135.829 112.117 147.495 124.95C159.162 137.783 164.995 153.65 164.995 172.55C164.995 196.583 156.829 215.367 140.495 228.9C123.929 242.667 104.095 249.55 80.9953 249.55C61.862 249.55 45.1786 245.233 30.9453 236.6C16.712 227.967 6.56198 215.717 0.495313 199.85L27.7953 183.75C35.0286 206.383 52.762 217.7 80.9953 217.7C96.3953 217.7 108.762 213.733 118.095 205.8C127.662 197.633 132.445 186.55 132.445 172.55C132.445 158.55 127.662 147.467 118.095 139.3C108.762 131.133 96.3953 127.05 80.9953 127.05H72.5953L59.6453 107.1L116.345 30.45H7.49531V-1.66893e-05H154.495V28.7Z" fill="url(#paint0_linear_161_40)"/>
<defs>
<linearGradient id="paint0_linear_161_40" x1="141.855" y1="36.4901" x2="252.039" y2="94.0424" gradientUnits="userSpaceOnUse">
<stop stop-color="#FAFCFC"/>
<stop offset="1" stop-color="#EDF3F5"/>
</linearGradient>
</defs>
</svg>
