<svg width="443" height="753" viewBox="0 0 443 753" fill="none" xmlns="http://www.w3.org/2000/svg">
<path d="M-114.857 189.487C-144.689 240.279 -162.744 299.572 -169.02 367.368C-175.297 435.164 -158.517 495.009 -109.65 550.625C-60.7826 606.241 -1.95911 639.694 58.3857 609.462C118.73 579.229 182.214 565.827 248.836 569.254C315.458 572.681 363.126 541.541 379.093 472.147C395.06 402.754 368.622 343.207 312.525 297.191C256.428 251.175 208.116 199.748 167.588 142.91C127.061 86.0714 77.3126 66.927 18.344 85.4763C-40.6246 104.026 -85.0249 138.696 -114.857 189.487Z" stroke="#D1232A"/>
<ellipse cx="7" cy="7" rx="7" ry="7" transform="matrix(-4.37114e-08 1 1 4.37114e-08 80 74)" fill="#D1232A"/>
</svg>
