<svg width="88" height="100" viewBox="0 0 88 100" fill="none" xmlns="http://www.w3.org/2000/svg">
<path d="M2.93686 84.582C3.67108 84.582 4.84582 84.8757 4.84582 85.7567V86.1972H4.11161V85.9036C4.11161 85.463 3.37739 85.3162 2.79002 85.3162C1.76212 85.3162 0.881065 86.0504 0.881065 87.2251C0.881065 88.3999 1.76212 89.2809 2.79002 89.2809C3.81792 89.2809 4.40529 88.5467 4.40529 88.5467L4.84582 89.1341C4.84582 89.1341 4.11161 90.0152 2.79002 90.0152C1.17475 90.0152 0.146851 88.8404 0.146851 87.2251C0.293693 85.7567 1.32159 84.582 2.93686 84.582ZM5.87372 85.3162H5.4332V84.7288H8.5169C8.81058 84.7288 8.95742 84.8757 8.95742 85.1693V85.7567H8.22321V85.463C8.22321 85.3162 8.22321 85.3162 8.07637 85.3162H6.60794V86.9314H8.37005V87.5188H6.60794V88.9872C6.60794 89.1341 6.60794 89.1341 6.75478 89.1341H8.22321C8.37005 89.1341 8.37005 89.1341 8.37005 88.9872V88.6936H9.10427V89.2809C9.10427 89.5746 8.95742 89.7215 8.66374 89.7215H6.31425C6.02057 89.7215 5.87372 89.5746 5.87372 89.2809V85.3162ZM9.98532 85.3162H9.5448V84.7288H11.8943C12.7753 84.7288 13.5096 85.3162 13.5096 86.3441C13.5096 87.372 12.7753 87.9594 11.8943 87.9594H10.8664V89.8683H10.1322V85.3162H9.98532ZM11.7474 87.2251C12.3348 87.2251 12.7753 86.7846 12.7753 86.1972C12.7753 85.6099 12.3348 85.1693 11.7474 85.1693H10.7195V87.2251H11.7474ZM14.3906 85.3162H13.9501V84.7288H16.8869C17.1806 84.7288 17.3275 84.8757 17.3275 85.1693V85.7567H16.5933V85.463C16.5933 85.3162 16.5933 85.3162 16.4464 85.3162H15.1248V89.8683H14.3906V85.3162ZM18.0617 85.463C18.0617 85.3162 18.0617 85.3162 17.9148 85.3162H17.6212V84.7288H18.3554C18.6491 84.7288 18.7959 84.8757 18.7959 85.1693V87.9594C18.7959 88.253 18.7959 88.6936 18.7959 88.6936C18.7959 88.6936 19.0896 88.253 19.2364 87.9594L21.4391 84.7288H22.1733V89.1341C22.1733 89.2809 22.1733 89.2809 22.3201 89.2809H22.6138V89.8683H21.8796C21.5859 89.8683 21.4391 89.7215 21.4391 89.4278V86.6378C21.4391 86.3441 21.4391 85.9036 21.4391 85.9036C21.4391 85.9036 21.1454 86.3441 20.9985 86.6378L18.7959 90.0152H18.0617V85.463ZM23.6417 85.3162H23.2012V84.7288H26.2849C26.5786 84.7288 26.7254 84.8757 26.7254 85.1693V85.7567H25.9912V85.463C25.9912 85.3162 25.9912 85.3162 25.8444 85.3162H24.3759V86.9314H26.138V87.5188H24.3759V88.9872C24.3759 89.1341 24.3759 89.1341 24.5228 89.1341H25.9912C26.138 89.1341 26.138 89.1341 26.138 88.9872V88.6936H26.8723V89.2809C26.8723 89.5746 26.7254 89.7215 26.4317 89.7215H24.0822C23.7886 89.7215 23.6417 89.5746 23.6417 89.2809V85.3162ZM27.9002 85.3162H27.4596V84.7288H29.6623C30.5433 84.7288 31.1307 85.1693 31.1307 86.0504C31.1307 86.6378 30.837 86.9315 30.5433 87.2251C31.1307 87.372 31.4244 87.9594 31.4244 88.5467C31.4244 89.5746 30.6902 90.0152 29.8091 90.0152H28.4875C28.1938 90.0152 28.047 89.8683 28.047 89.5746V85.3162H27.9002ZM29.6623 86.7846C30.1028 86.7846 30.3965 86.4909 30.3965 86.0504C30.3965 85.6099 30.1028 85.3162 29.6623 85.3162H28.6344V86.9314H29.6623V86.7846ZM28.7812 89.2809H29.8091C30.3965 89.2809 30.6902 88.9872 30.6902 88.3999C30.6902 87.8125 30.3965 87.5188 29.8091 87.5188H28.6344V89.1341C28.6344 89.1341 28.6344 89.2809 28.7812 89.2809ZM34.5081 84.582C35.9765 84.582 37.1513 85.7567 37.1513 87.2251C37.1513 88.6936 35.9765 89.8683 34.5081 89.8683C33.0397 89.8683 31.8649 88.6936 31.8649 87.2251C31.8649 85.7567 33.0397 84.582 34.5081 84.582ZM34.5081 89.2809C35.536 89.2809 36.417 88.3999 36.417 87.2251C36.417 86.0504 35.536 85.3162 34.5081 85.3162C33.4802 85.3162 32.5991 86.1972 32.5991 87.2251C32.746 88.3999 33.4802 89.2809 34.5081 89.2809ZM37.8855 86.9314H40.0881V87.5188H37.8855V86.9314ZM41.2629 85.3162H40.8223V84.7288H44.7871C45.0808 84.7288 45.2276 84.8757 45.2276 85.1693V89.1341C45.2276 89.2809 45.2276 89.2809 45.3745 89.2809H45.6681V89.8683H44.9339C44.6402 89.8683 44.4934 89.7215 44.4934 89.4278V85.463C44.4934 85.3162 44.4934 85.3162 44.3466 85.3162H41.9971V89.8683H41.2629V85.3162ZM48.8987 84.582C50.3671 84.582 51.5419 85.7567 51.5419 87.2251C51.5419 88.6936 50.3671 89.8683 48.8987 89.8683C47.4303 89.8683 46.2555 88.6936 46.2555 87.2251C46.2555 85.7567 47.2834 84.582 48.8987 84.582ZM48.8987 89.2809C49.9266 89.2809 50.8076 88.3999 50.8076 87.2251C50.8076 86.0504 49.9266 85.3162 48.8987 85.3162C47.8708 85.3162 46.9897 86.1972 46.9897 87.2251C46.9897 88.3999 47.8708 89.2809 48.8987 89.2809ZM54.6256 84.582C55.3598 84.582 56.5345 84.8757 56.5345 85.7567V86.1972H55.9471V85.9036C55.9471 85.463 55.2129 85.3162 54.6256 85.3162C53.5977 85.3162 52.7166 86.0504 52.7166 87.2251C52.7166 88.3999 53.5977 89.2809 54.6256 89.2809C55.6535 89.2809 56.2408 88.5467 56.2408 88.5467L56.6814 89.1341C56.6814 89.1341 55.9471 90.0152 54.6256 90.0152C53.0103 90.0152 51.9824 88.8404 51.9824 87.2251C51.9824 85.7567 53.1571 84.582 54.6256 84.582ZM56.975 89.2809C57.2687 89.2809 57.2687 89.2809 57.2687 89.1341L58.884 84.7288H59.6182L61.2335 89.1341C61.2335 89.2809 61.3803 89.2809 61.5272 89.2809H61.674V89.8683H61.2335C60.9398 89.8683 60.793 89.7215 60.6461 89.4278L60.2056 88.3999H58.2966L57.8561 89.4278C57.7093 89.7215 57.5624 89.8683 57.2687 89.8683H56.8282V89.2809H56.975ZM60.0587 87.6657L59.4714 86.0504C59.3245 85.7567 59.3245 85.3162 59.3245 85.3162C59.3245 85.3162 59.1777 85.7567 59.1777 86.0504L58.5903 87.6657H60.0587ZM62.2614 89.2809C63.1424 88.253 63.1425 86.9315 63.1425 85.7567V85.3162H62.7019V84.7288H65.7856C66.0793 84.7288 66.2262 84.8757 66.2262 85.1693V89.2809H66.373C66.6667 89.2809 66.8135 89.4278 66.8135 89.7215V90.8962H66.2262V90.0152C66.2262 89.8683 66.2262 89.8683 66.0793 89.8683H62.7019C62.5551 89.8683 62.5551 89.8683 62.5551 90.0152V90.8962H61.8209V89.7215C61.8209 89.2809 61.9677 89.2809 62.2614 89.2809ZM65.4919 89.2809V85.463C65.4919 85.3162 65.4919 85.3162 65.3451 85.3162H63.8767V85.7567C63.8767 86.9315 63.7298 88.253 63.1425 89.1341H65.4919V89.2809ZM69.8972 84.582C70.6314 84.582 71.8062 84.8757 71.8062 85.7567V86.1972H71.072V85.9036C71.072 85.463 70.3378 85.3162 69.7504 85.3162C68.7225 85.3162 67.8414 86.0504 67.8414 87.2251C67.8414 88.3999 68.7225 89.2809 69.7504 89.2809C70.7783 89.2809 71.3656 88.5467 71.3656 88.5467L71.8062 89.1341C71.8062 89.1341 71.072 90.0152 69.7504 90.0152C68.1351 90.0152 67.1072 88.8404 67.1072 87.2251C67.254 85.7567 68.282 84.582 69.8972 84.582ZM72.8341 85.463C72.8341 85.3162 72.8341 85.3162 72.6872 85.3162H72.3936V84.7288H73.1278C73.4214 84.7288 73.5683 84.8757 73.5683 85.1693V86.9314H74.0088C74.1557 86.9314 74.3025 86.9314 74.4493 86.7846L75.6241 84.7288H76.5051L75.1836 86.9314C75.0367 87.2251 74.8899 87.2251 74.8899 87.2251C74.8899 87.2251 75.0367 87.2251 75.1836 87.5188L75.9178 89.1341C75.9178 89.2809 76.0646 89.2809 76.2115 89.2809H76.5051V89.8683H76.0646C75.6241 89.8683 75.4772 89.8683 75.3304 89.4278L74.4493 87.6657C74.3025 87.5188 74.1557 87.5188 74.0088 87.5188H73.5683V89.8683H72.8341V85.463ZM77.2394 85.463C77.2394 85.3162 77.2394 85.3162 77.0925 85.3162H76.7988V84.7288H77.5331C77.8267 84.7288 77.9736 84.8757 77.9736 85.1693V87.9594C77.9736 88.253 77.9736 88.6936 77.9736 88.6936C77.9736 88.6936 78.2673 88.253 78.4141 87.9594L80.6168 84.7288H81.351V89.1341C81.351 89.2809 81.351 89.2809 81.4978 89.2809H81.7915V89.8683H81.0573C80.7636 89.8683 80.6168 89.7215 80.6168 89.4278V86.6378C80.6168 86.3441 80.6168 85.9036 80.6168 85.9036C80.6168 85.9036 80.3231 86.3441 80.1762 86.6378L77.9736 89.8683H77.2394V85.463ZM82.9662 85.463C82.9662 85.3162 82.9662 85.3162 82.8194 85.3162H82.3789V84.7288H83.1131C83.4068 84.7288 83.5536 84.8757 83.5536 85.1693V87.9594C83.5536 88.253 83.5536 88.6936 83.5536 88.6936C83.5536 88.6936 83.8473 88.253 83.9941 87.9594L86.1968 84.7288H86.931V89.1341C86.931 89.2809 86.931 89.2809 87.0778 89.2809H87.3715V89.8683H86.7841C86.4905 89.8683 86.3436 89.7215 86.3436 89.4278V86.6378C86.3436 86.3441 86.3436 85.9036 86.3436 85.9036C86.3436 85.9036 86.0499 86.3441 85.9031 86.6378L83.7005 90.0152H82.9662V85.463ZM83.8473 83.5541L84.4347 83.4072V83.5541C84.4347 83.8478 84.7283 83.9946 84.8752 83.9946C85.1689 83.9946 85.4626 83.8478 85.4626 83.5541V83.4072H86.0499V83.5541C86.0499 84.1414 85.6094 84.4351 85.022 84.4351C84.4347 84.4351 83.8473 84.1414 83.8473 83.5541Z" fill="#464646"/>
<path d="M7.92952 80.9107C3.37739 80.9107 0 77.5333 0 73.128C0 70.7785 1.0279 67.2543 3.52423 67.2543H5.28634V69.7506H4.1116C3.0837 69.7506 2.49633 71.8064 2.49633 73.128C2.49633 76.0649 4.84581 78.2675 7.92952 78.2675C11.1601 78.2675 13.6564 75.918 13.6564 73.128C13.6564 70.338 11.7474 68.5759 11.7474 68.5759L11.4537 68.4291L13.3627 66.9606L13.5095 67.1075C13.6564 67.2543 16.1527 69.3101 16.1527 73.2749C16.2996 77.5333 12.6285 80.9107 7.92952 80.9107ZM2.64317 66.0796H0.293687V54.0385C0.293687 52.8637 0.881058 52.4232 1.90896 52.4232H13.3627C13.5095 52.4232 13.5095 52.4232 13.5095 52.2763V51.1016H15.859V53.4511C15.859 54.6258 15.2717 55.0664 14.2438 55.0664H2.79002C2.64317 55.0664 2.64317 55.0664 2.64317 55.2132V61.968H16.0059V64.6111H2.64317V66.0796ZM16.0059 50.3674H13.6564V49.3395C13.6564 49.1926 13.6564 49.1926 13.3627 49.1926L0.293687 48.1647V45.5216L8.51689 41.8505C8.95742 41.7036 9.54479 41.41 9.83847 41.2631C9.39795 41.1163 8.95742 40.9694 8.51689 40.6758L0.293687 37.0047V34.3615L13.3627 33.3336C13.6564 33.3336 13.6564 33.1868 13.6564 33.1868V32.3057H16.0059V34.5083C16.0059 35.5362 15.5653 36.1236 14.3906 36.1236L6.31424 36.711C6.02056 36.711 5.72687 36.711 5.43319 36.711C5.72687 36.8578 6.02056 37.0047 6.31424 37.0047L13.069 40.0884V42.1442L6.46109 45.5216C6.1674 45.6684 5.87372 45.8153 5.58003 45.9621C5.87372 45.9621 6.1674 45.9621 6.46109 45.9621L14.5374 46.5495C15.7122 46.6963 16.1527 47.1368 16.1527 48.1647V50.3674H16.0059ZM2.64317 31.7183H0.293687V29.3688C0.293687 28.1941 0.881058 27.7536 1.90896 27.7536H6.60793V26.432C6.60793 25.8446 6.46109 25.5509 6.1674 25.4041L0.293687 22.0267V19.0898L7.04846 22.9078C7.48899 23.2014 7.78267 23.3483 7.92952 23.4951C8.07636 23.3483 8.37004 23.0546 8.81057 22.7609L13.3627 20.5583C13.6564 20.4114 13.6564 20.2646 13.6564 19.6772V19.0898H16.0059V20.5583C16.0059 21.8799 15.859 22.3204 14.6843 22.9078L9.39794 25.5509C9.10426 25.6978 8.95742 26.1383 8.95742 26.7257V27.7536H16.0059V30.3967H2.93686C2.79001 30.3967 2.79002 30.3967 2.79002 30.5436V31.7183H2.64317Z" fill="#D1232A"/>
<path d="M80.1762 78.2675L80.0294 80.4701H87.5184L85.9031 77.2396C83.4068 71.8064 83.4068 58.8842 83.5536 51.8358L83.1131 52.1295C81.7915 52.7168 79.442 54.1853 77.0925 56.0942C75.3304 57.5627 73.862 59.1779 72.8341 60.7932C80.7636 65.7859 80.3231 76.6522 80.1762 78.2675Z" fill="#464646"/>
<path d="M43.4655 75.918C45.3745 77.9738 45.9618 80.4701 45.9618 80.4701H52.7166C51.1013 77.5333 50.2203 77.5333 47.8708 73.2748C46.6961 71.219 46.9897 70.0443 48.3113 68.1353L53.1571 62.2616C47.4303 62.5553 43.4655 65.0516 41.4097 66.5201C41.4097 68.8695 41.116 71.6595 43.4655 75.918Z" fill="#464646"/>
<path d="M43.4655 9.83872V13.3629C43.4655 16.0061 45.6682 18.2088 48.3113 18.2088H55.6535L60.0588 14.5377C60.2056 14.3908 60.2056 14.3908 60.3525 14.244H47.8708C45.5213 14.244 43.4655 12.1882 43.4655 9.83872Z" fill="#464646"/>
<path d="M20.4112 36.2704C20.558 31.8652 24.0823 28.4878 28.4875 28.4878H36.1234C38.1792 28.4878 39.7944 26.7256 39.7944 24.6698C39.7944 22.7609 38.0323 21.1456 36.1234 21.1456H33.1865C32.746 21.1456 32.3055 21.2925 32.0118 21.5861L30.3965 22.4672C29.956 22.614 29.5154 22.7609 29.0749 22.7609H27.4596C27.0191 22.7609 26.5786 22.614 26.2849 22.4672L23.348 20.9988C23.0544 20.8519 22.9075 20.5582 22.9075 20.2646V19.9709C22.9075 19.3835 23.348 19.0898 23.7886 19.0898H36.1234C39.3539 19.0898 41.9971 21.733 41.9971 25.1104C41.9971 28.3409 39.2071 30.8372 35.9765 30.8372H28.4875C25.4038 30.8372 22.7607 33.3336 22.6138 36.4173C22.467 39.6478 25.1102 42.291 28.3407 42.291H47.724C48.1645 42.291 48.4582 42.1441 48.7519 41.9973L59.6182 34.9488C61.0867 34.0678 61.8209 32.4525 61.8209 30.8372V27.6067H67.2541C68.7225 27.6067 70.0441 28.7815 70.0441 30.3967V31.1309C70.0441 31.4246 70.3378 31.7183 70.6314 31.7183C70.9251 31.7183 71.2188 31.4246 71.2188 31.1309V30.3967C71.2188 28.1941 69.4567 26.432 67.2541 26.432H55.3598C54.7724 26.432 54.3319 26.1383 54.0382 25.5509L53.1571 23.4951C52.8635 22.9077 53.0103 22.1735 53.5977 21.733L60.9398 15.4187C61.8209 14.6845 62.9956 14.244 64.1704 14.244H65.0514C65.9325 14.244 66.6667 13.9503 67.1072 13.3629C67.6946 12.7756 67.9883 12.0414 67.9883 11.1603C67.9883 9.54503 66.5198 8.22345 64.9046 8.22345H58.2966C55.6535 8.22345 53.4508 6.0208 53.4508 3.37763V0.000244141C53.4508 2.34973 55.3598 4.40553 57.8561 4.40553H67.9883C71.5125 4.40553 74.3025 7.19554 74.3025 10.7198C74.3025 12.0414 73.862 13.2161 73.2746 14.244C72.6872 14.9782 72.0999 15.5656 71.2188 15.8593C70.9251 16.0061 70.7783 16.4466 70.9251 16.7403C71.072 17.034 71.2188 17.034 71.5125 17.034C71.6593 17.034 71.6593 17.034 71.8062 17.034C72.9809 16.4466 74.0088 15.5656 74.743 14.3908C79.7357 15.1251 83.7005 19.5303 83.7005 24.8167V50.661C83.7005 50.661 69.3099 56.8284 69.3099 68.8696C69.3099 74.7433 72.9809 80.617 73.1278 80.617H65.6388L62.9956 74.1559C63.8767 70.4848 63.7298 69.6038 62.2614 66.0795L58.7372 56.8284C57.5624 53.7447 56.9751 50.661 56.9751 47.4305V44.4936C56.9751 44.2 56.6814 43.9063 56.3877 43.9063C56.094 43.9063 55.8003 44.2 55.8003 44.4936V47.4305C55.8003 50.8079 56.3877 54.1853 57.5624 57.269L59.0309 60.94H54.4787C50.0734 60.94 45.6682 62.2616 41.9971 64.6111C35.2423 69.0164 35.3892 72.1001 35.3892 72.1001C35.2423 72.8343 35.9765 74.7433 36.8576 76.0649C37.2981 76.6522 40.3818 80.4701 40.3818 80.4701H33.627C33.627 80.4701 31.8649 78.1207 30.6902 75.918C29.8091 71.0722 30.1028 69.1632 30.837 66.5201C34.6549 63.7301 35.6828 60.94 35.8297 56.8284C35.3892 55.6537 35.2423 54.3321 35.2423 53.0105C35.2423 51.8358 35.3892 50.5142 35.8297 49.3395C36.2702 48.1647 36.8576 46.99 37.5918 45.9621C38.1792 45.2279 37.5918 44.2 36.7107 44.2H28.3407C23.9354 44.3468 20.2643 40.6757 20.4112 36.2704ZM64.9046 17.034H63.2893C62.9956 17.034 62.8488 16.8872 62.8488 16.5935C62.8488 16.5935 62.7019 16.4466 62.7019 16.5935C62.4082 16.8872 62.4082 17.3277 62.5551 17.4745C62.7019 17.7682 62.8488 18.0619 62.8488 18.3556C62.8488 18.5024 62.9956 18.6493 63.2893 18.6493C64.1704 18.5024 64.7577 18.2088 65.1983 17.6214C65.3451 17.3277 65.1983 17.034 64.9046 17.034Z" fill="#464646"/>
<path d="M0 98.8253H0.293687C0.44053 98.8253 0.440529 98.6785 0.587372 98.5317L1.0279 92.3643H2.0558L3.81792 96.1822C3.96476 96.6227 4.1116 97.0632 4.1116 97.0632C4.1116 97.0632 4.25844 96.4759 4.40529 96.1822L6.1674 92.3643H7.1953L7.63583 98.5317C7.63583 98.6785 7.78267 98.8253 7.92952 98.8253H8.2232V99.7064H7.48899C7.04846 99.7064 6.90162 99.5596 6.75477 99.119L6.46109 95.3011C6.46109 94.8606 6.46109 94.2732 6.46109 94.2732C6.46109 94.2732 6.31424 95.0074 6.02056 95.3011L4.55213 98.5317H3.67107L2.20264 95.3011C2.0558 94.8606 1.76212 94.2732 1.76212 94.2732C1.76212 94.2732 1.76212 94.8606 1.76212 95.3011L1.61527 99.119C1.61527 99.5596 1.46843 99.7064 1.0279 99.7064H0.146843V98.8253H0ZM8.81057 98.8253C9.2511 98.8253 9.39794 98.8253 9.39794 98.5317L10.4258 96.9164C10.5727 96.6227 10.8664 96.6227 10.8664 96.6227C10.7195 96.6227 9.39794 96.1822 9.39794 94.7137C9.39794 93.3922 10.4258 92.5111 11.7474 92.5111H14.8311V93.3922H14.0969V99.7064H13.069V96.9164H12.188C11.7474 96.9164 11.6006 96.9164 11.4537 97.3569L10.4258 99.119C10.1322 99.5596 9.98532 99.7064 9.39794 99.7064H8.95742V98.8253H8.81057ZM12.9222 96.1822V93.539H11.6006C10.7195 93.539 10.1322 93.9795 10.1322 94.8606C10.1322 95.7416 10.7195 96.1822 11.6006 96.1822H12.9222ZM19.0896 92.3643C20.1175 92.3643 21.8796 92.8048 21.8796 93.9795V94.7137H20.9985V94.2732C20.9985 93.6858 19.9706 93.3922 19.2364 93.3922C17.768 93.3922 16.5932 94.4201 16.5932 96.1822C16.5932 97.7974 17.768 98.9722 19.2364 98.9722C20.7048 98.9722 21.5859 97.9443 21.5859 97.9443L22.1733 98.6785C22.1733 98.6785 21.1454 99.8532 19.3833 99.8532C17.1806 99.8532 15.7122 98.238 15.7122 96.0353C15.4185 93.9795 16.8869 92.3643 19.0896 92.3643ZM26.138 92.3643C28.1938 92.3643 29.8091 93.9795 29.8091 96.0353C29.8091 98.238 28.1938 99.8532 26.138 99.8532C24.0822 99.8532 22.467 98.238 22.467 96.0353C22.467 93.9795 24.0822 92.3643 26.138 92.3643ZM26.138 98.9722C27.6065 98.9722 28.7812 97.7974 28.7812 96.1822C28.7812 94.5669 27.6065 93.3922 26.138 93.3922C24.6696 93.3922 23.4949 94.5669 23.4949 96.1822C23.4949 97.6506 24.6696 98.9722 26.138 98.9722ZM31.2775 93.6858C31.2775 93.539 31.1307 93.3922 30.9838 93.3922H30.5433V92.5111H31.5712C32.0118 92.5111 32.1586 92.6579 32.1586 93.0985V95.448H32.8928C33.1865 95.448 33.3333 95.448 33.4802 95.1543L35.0954 92.3643H36.2702L34.5081 95.448C34.3612 95.7416 34.0675 95.8885 34.0675 95.8885C34.0675 95.8885 34.2144 95.8885 34.5081 96.329L35.536 98.5317C35.6828 98.6785 35.8297 98.8253 35.9765 98.8253H36.1234V99.7064H35.536C34.9486 99.7064 34.8018 99.7064 34.5081 99.119L33.1865 96.6227C33.0396 96.329 32.8928 96.329 32.5991 96.329H32.0117V99.7064H30.9838V93.6858H31.2775ZM40.5286 92.3643C42.5844 92.3643 44.1997 93.9795 44.1997 96.0353C44.1997 98.238 42.5844 99.8532 40.5286 99.8532C38.4728 99.8532 36.8576 98.238 36.8576 96.0353C36.7107 93.9795 38.326 92.3643 40.5286 92.3643ZM40.5286 98.9722C41.9971 98.9722 43.1718 97.7974 43.1718 96.1822C43.1718 94.5669 41.9971 93.3922 40.5286 93.3922C39.0602 93.3922 37.8855 94.5669 37.8855 96.1822C37.8855 97.6506 39.0602 98.9722 40.5286 98.9722ZM44.7871 98.8253H45.0808C45.2276 98.8253 45.2276 98.6785 45.3745 98.5317L45.815 92.3643H46.8429L48.605 96.1822C48.7518 96.6227 48.8987 97.0632 48.8987 97.0632C48.8987 97.0632 49.0455 96.4759 49.1924 96.1822L50.9545 92.3643H51.9824L52.4229 98.5317C52.4229 98.6785 52.5698 98.8253 52.7166 98.8253H53.0103V99.7064H52.1292C51.6887 99.7064 51.5419 99.5596 51.395 99.119L51.1013 95.3011C51.1013 94.8606 51.1013 94.2732 51.1013 94.2732C51.1013 94.2732 50.9545 95.0074 50.6608 95.3011L49.1924 98.5317H48.605L47.1366 95.3011C46.9897 94.8606 46.696 94.2732 46.696 94.2732C46.696 94.2732 46.696 94.8606 46.696 95.3011L46.4024 99.119C46.4024 99.5596 46.2555 99.7064 45.815 99.7064H44.9339V98.8253H44.7871ZM54.4787 93.3922H53.7445V92.5111H58.0029C58.4435 92.5111 58.5903 92.6579 58.5903 93.0985V93.9795H57.7093V93.539C57.7093 93.3922 57.5624 93.2453 57.4156 93.2453H55.3598V95.448H56.6814C57.8561 95.448 59.1777 96.0353 59.1777 97.5038C59.1777 98.9722 58.1498 99.7064 56.6814 99.7064H54.9192C54.4787 99.7064 54.185 99.5596 54.185 99.119V93.3922H54.4787ZM55.6535 98.9722H56.8282C57.7092 98.9722 58.1498 98.5317 58.1498 97.6506C58.1498 96.7695 57.7092 96.329 56.8282 96.329H55.3598V98.6785C55.5066 98.8253 55.5066 98.9722 55.6535 98.9722ZM60.4993 93.6858C60.4993 93.539 60.3524 93.3922 60.2056 93.3922H59.765V92.5111H60.793C61.2335 92.5111 61.3803 92.6579 61.3803 93.0985V97.0632C61.3803 97.5038 61.3803 98.0911 61.3803 98.0911C61.3803 98.0911 61.8209 97.5038 61.9677 97.0632L65.1982 92.5111H66.2261V98.6785C66.2261 98.8253 66.373 98.9722 66.5198 98.9722H66.9604V99.8532H65.9325C65.4919 99.8532 65.1982 99.7064 65.1982 99.2659V95.3011C65.1982 94.8606 65.1982 94.2732 65.1982 94.2732C65.1982 94.2732 64.9046 95.0074 64.6109 95.3011L61.3803 100H60.3524V93.6858H60.4993ZM68.4288 93.6858C68.4288 93.539 68.2819 93.3922 68.1351 93.3922H67.6946V92.5111H68.7225C69.163 92.5111 69.3098 92.6579 69.3098 93.0985V95.5948H72.9809V93.0985C72.9809 92.6579 73.1278 92.5111 73.7151 92.5111H74.743V93.3922H74.3025C74.1557 93.3922 74.0088 93.3922 74.0088 93.6858V99.8532H72.9809V96.6227H69.3098V99.8532H68.2819V93.6858H68.4288ZM75.1836 98.8253C75.4772 98.8253 75.6241 98.8253 75.6241 98.5317L77.9736 92.5111H79.0015L81.2041 98.6785C81.2041 98.8253 81.351 98.9722 81.4978 98.9722H81.6446V99.8532H81.0573C80.6167 99.8532 80.3231 99.7064 80.1762 99.2659L79.5888 97.7974H76.9457L76.3583 99.2659C76.2115 99.7064 76.0646 99.8532 75.4772 99.8532H74.8899V98.8253H75.1836ZM79.5888 96.7695L78.8546 94.5669C78.7078 94.1264 78.5609 93.539 78.5609 93.539C78.5609 93.539 78.4141 94.1264 78.2673 94.5669L77.5331 96.7695H79.5888ZM83.8473 93.3922H82.3789C82.232 93.3922 82.0852 93.3922 82.0852 93.6858V94.1264H81.2041V93.0985C81.2041 92.6579 81.351 92.5111 81.7915 92.5111H86.7841C87.2247 92.5111 87.3715 92.6579 87.3715 93.0985V94.1264H86.4905V93.6858C86.4905 93.539 86.3436 93.3922 86.1968 93.3922H84.7283V99.7064H83.8473V93.3922Z" fill="#D1232A"/>
</svg>
