<svg width="147" height="91" viewBox="0 0 147 91" fill="none" xmlns="http://www.w3.org/2000/svg">
<path d="M136.817 88.3713H116.186C111.665 88.3713 108 84.7062 108 80.1857C108 75.6651 111.665 72 116.186 72H136.817C141.337 72 145.002 75.6651 145.002 80.1857C144.999 84.7097 141.334 88.3713 136.817 88.3713Z" stroke="#404040" stroke-width="3" stroke-miterlimit="10" stroke-linecap="round" stroke-linejoin="round"/>
<path d="M99.3839 88.4621H78.7527C74.2322 88.4621 70.5671 84.797 70.5671 80.2764C70.5671 75.7559 74.2322 72.0907 78.7527 72.0907H99.3839C103.904 72.0907 107.57 75.7559 107.57 80.2764C107.566 84.797 103.901 88.4621 99.3839 88.4621Z" stroke="#404040" stroke-width="3" stroke-miterlimit="10" stroke-linecap="round" stroke-linejoin="round"/>
<path d="M61.984 88.567H41.3529C36.8324 88.567 33.1672 84.9019 33.1672 80.3813C33.1672 75.8608 36.8324 72.1956 41.3529 72.1956L61.984 72.1956C66.5045 72.1956 70.1697 75.8608 70.1697 80.3813C70.1697 84.9019 66.5045 88.567 61.984 88.567Z" stroke="#404040" stroke-width="3" stroke-miterlimit="10" stroke-linecap="round" stroke-linejoin="round"/>
<path d="M2 2H66M10 2C15.0101 7.88696 17.1427 15.4989 18 23M58 2C52.9899 7.88696 50.8573 15.4989 50 23M57.5366 40.892C57.5366 53.9149 46.9795 64.4719 33.9567 64.4719C20.9339 64.4719 10.3768 53.9149 10.3768 40.892C10.3768 27.8692 20.9339 17.3122 33.9567 17.3122C46.9795 17.3122 57.5366 27.8692 57.5366 40.892Z" stroke="#404040" stroke-width="3" stroke-miterlimit="10" stroke-linecap="round" stroke-linejoin="round"/>
<path d="M42.1424 52.6688V63.9085C42.1424 68.4291 38.4773 72.0942 33.9568 72.0942C29.4363 72.0942 25.7711 68.4291 25.7711 63.9085V52.6688C25.7711 48.1483 29.4363 44.4832 33.9568 44.4832C38.4773 44.4832 42.1424 48.1483 42.1424 52.6688Z" fill="white" stroke="#404040" stroke-width="3" stroke-miterlimit="10" stroke-linecap="round" stroke-linejoin="round"/>
</svg>
