<svg width="147" height="81" viewBox="0 0 147 81" fill="none" xmlns="http://www.w3.org/2000/svg">
<path d="M83.2767 79H130.788C138.636 79 145 72.511 145 64.5C145 56.4925 138.639 50 130.788 50H16.2165C8.36558 50 2 56.4925 2 64.5C2 72.5075 8.36558 79 16.2165 79H63.2084M42 64.5C42 72.5081 35.5081 79 27.5 79C19.4919 79 13 72.5081 13 64.5C13 56.4919 19.4919 50 27.5 50C35.5081 50 42 56.4919 42 64.5ZM30.9249 64.4999C30.9249 66.3915 29.3915 67.9249 27.4999 67.9249C25.6083 67.9249 24.0748 66.3915 24.0748 64.4999C24.0748 62.6083 25.6083 61.0748 27.4999 61.0748C29.3915 61.0748 30.9249 62.6083 30.9249 64.4999ZM132.13 64.5C132.13 72.5081 125.638 79 117.63 79C109.622 79 103.13 72.5081 103.13 64.5C103.13 56.4919 109.622 50 117.63 50C125.638 50 132.13 56.4919 132.13 64.5ZM121.055 64.4999C121.055 66.3915 119.522 67.9249 117.63 67.9249C115.738 67.9249 114.205 66.3915 114.205 64.4999C114.205 62.6083 115.738 61.0748 117.63 61.0748C119.522 61.0748 121.055 62.6083 121.055 64.4999Z" stroke="#404040" stroke-width="2.5" stroke-miterlimit="10" stroke-linecap="round" stroke-linejoin="round"/>
<path d="M73 81C74.1046 81 75 80.1046 75 79C75 77.8954 74.1046 77 73 77C71.8954 77 71 77.8954 71 79C71 80.1046 71.8954 81 73 81Z" fill="#404040"/>
<path d="M52.0937 50C65.1434 50 75.7223 39.2743 75.7223 26.0435C75.7223 21.257 74.3377 16.7984 71.9526 13.0568M71.1783 50C84.228 50 94.8069 39.2743 94.8069 26.0435C94.8069 21.257 93.4223 16.7984 91.0371 13.0568M51.1849 49.9129H89.3541C102.404 49.9129 112.983 39.1872 112.983 25.9565C112.983 12.7257 102.404 2 89.3541 2H51.1849C38.1353 2 27.5564 12.7257 27.5564 25.9565C27.5564 39.1872 38.1353 49.9129 51.1849 49.9129ZM114.935 22.3148C117.05 20.5085 119.915 18.3325 121.684 17.014C122.644 16.2986 123.953 16.3196 124.741 17.2263C125.964 18.6346 127.523 21.0338 127.523 24.1136C127.523 27.1935 125.964 29.5926 124.741 31.001C123.953 31.9077 122.644 31.9287 121.684 31.2132C119.915 29.8948 117.05 27.7188 114.935 25.9125C113.81 24.9509 113.81 23.2763 114.935 22.3148Z" stroke="#404040" stroke-width="2.5" stroke-miterlimit="10" stroke-linecap="round" stroke-linejoin="round"/>
<path d="M62.9991 25.035C62.9991 27.0705 61.3716 28.7206 59.3639 28.7206C57.3563 28.7206 55.7288 27.0705 55.7288 25.035C55.7288 22.9995 57.3563 21.3494 59.3639 21.3494C61.3716 21.3494 62.9991 22.9995 62.9991 25.035Z" fill="#404040"/>
<path d="M46.6409 19.5067C46.6409 21.5422 45.0134 23.1923 43.0058 23.1923C40.9981 23.1923 39.3706 21.5422 39.3706 19.5067C39.3706 17.4711 40.9981 15.821 43.0058 15.821C45.0134 15.821 46.6409 17.4711 46.6409 19.5067Z" fill="#404040"/>
<path d="M51.1849 36.0918C51.1849 38.1273 49.5574 39.7774 47.5497 39.7774C45.5421 39.7774 43.9146 38.1273 43.9146 36.0918C43.9146 34.0563 45.5421 32.4062 47.5497 32.4062C49.5574 32.4062 51.1849 34.0563 51.1849 36.0918Z" fill="#404040"/>
</svg>
