<svg width="55" height="52" viewBox="0 0 55 52" fill="none" xmlns="http://www.w3.org/2000/svg">
<path d="M52.1685 22.0527L49.6695 32.7117C47.5275 41.9172 43.2945 45.6402 35.3385 44.8752C34.0635 44.7732 32.6865 44.5437 31.2075 44.1867L26.9235 43.1667C16.29 40.6422 13.0005 35.3892 15.4995 24.7302L17.9985 14.0457C18.5085 11.8782 19.1205 9.99123 19.8855 8.43573C22.869 2.26473 27.9435 0.607234 36.4605 2.62173L40.719 3.61623C51.4035 6.11523 54.6675 11.3937 52.1685 22.0527Z" stroke="#404040" stroke-width="2.5" stroke-linecap="round" stroke-linejoin="round"/>
<path d="M35.3387 44.8751C33.7577 45.9461 31.7687 46.8386 29.3462 47.6291L25.3172 48.9551C15.1937 52.2191 9.86423 49.4906 6.57473 39.3672L3.31073 29.2947C0.0467342 19.1712 2.74973 13.8162 12.8732 10.5522L16.9022 9.22617C17.9477 8.89467 18.9422 8.61417 19.8857 8.43567C19.1207 9.99117 18.5087 11.8782 17.9987 14.0457L15.4997 24.7302C13.0007 35.3892 16.2902 40.6422 26.9237 43.1666L31.2077 44.1867C32.6867 44.5437 34.0637 44.7731 35.3387 44.8751Z" stroke="#404040" stroke-width="2.5" stroke-linecap="round" stroke-linejoin="round"/>
</svg>
