<svg width="53" height="53" viewBox="0 0 53 53" fill="none" xmlns="http://www.w3.org/2000/svg">
<path d="M47.4977 32.5548C46.3198 38.405 42.9135 43.5676 37.9992 46.9505C33.085 50.3334 27.0481 51.6714 21.1655 50.6815C11.5878 49.1394 3.88023 41.4285 2.31344 31.8469C1.33483 25.9772 2.6677 19.9566 6.03216 15.0492C9.39661 10.1418 14.5309 6.72957 20.3568 5.52896M43.2522 25.7289C49.8226 25.7289 52.5518 23.2008 50.1258 14.9085C48.4832 9.32129 43.6818 4.51783 38.0969 2.87454C29.8081 0.447525 27.281 3.17791 27.281 9.75107V17.0321C27.281 23.2008 29.8081 25.7289 34.8622 25.7289H43.2522Z" stroke="#404040" stroke-width="2.5" stroke-linecap="round" stroke-linejoin="round"/>
</svg>
