<svg width="160" height="85" viewBox="0 0 160 85" fill="none" xmlns="http://www.w3.org/2000/svg">
<path d="M72.0688 50.4825C72.0688 56.5735 76.3734 61.3466 82.5522 61.3466C87.7646 61.3466 90.693 57.8912 90.693 57.8912L89.1117 55.7828C89.1117 55.7828 86.6812 58.594 82.5815 58.594C78.3647 58.594 75.1142 54.9922 75.1142 50.4825C75.1142 45.8265 78.3354 42.6932 82.4936 42.6932C84.5728 42.6932 87.5011 43.5716 87.5011 45.2994V46.4707H90.1952V44.4502C90.1952 41.1118 85.217 39.9698 82.4351 39.9698C76.5198 39.9698 72.0688 44.5087 72.0688 50.4825ZM94.3605 60.9952H97.2888V42.8396H106.835C107.245 42.8396 107.479 43.0445 107.479 43.4838V59.1211C107.479 60.4389 108.036 60.9952 109.383 60.9952H112.311V58.4769H111.052C110.642 58.4769 110.408 58.2426 110.408 57.8326V42.1953C110.408 40.8776 109.851 40.3212 108.534 40.3212H92.4571V42.8396H94.3605V60.9952ZM113.984 60.9952H116.59C117.908 60.9952 118.376 60.4389 118.464 59.1211L119.313 48.1984C119.401 46.9685 119.372 45.1237 119.372 45.1237H119.43C119.43 45.1237 120.045 47.1149 120.543 48.1984L124.701 57.2763H127.161L131.349 48.1984C131.847 47.0857 132.462 45.153 132.462 45.153H132.52C132.52 45.153 132.462 46.9685 132.579 48.1984L133.399 59.1211C133.516 60.4389 133.955 60.9952 135.302 60.9952H137.908V58.4769H136.913C136.503 58.4769 136.298 58.2426 136.268 57.8326L134.863 40.3212H131.847L126.986 51.2439C126.488 52.3859 125.961 53.8794 125.961 53.8794H125.902C125.902 53.8794 125.375 52.3859 124.877 51.2439L120.016 40.3212H117L115.594 57.8326C115.565 58.2426 115.36 58.4769 114.95 58.4769H113.984V60.9952ZM141.46 60.9952H144.389V51.5074H146.146C146.995 51.5074 147.639 51.5953 147.991 52.2688L151.563 59.4432C152.207 60.7903 152.822 60.9952 154.433 60.9952H156.044V58.4769H155.487C154.784 58.4769 154.316 58.4183 154.023 57.8034L150.919 51.5953C150.333 50.4532 149.748 50.3068 149.748 50.3068V50.2483C149.748 50.2483 150.333 49.9261 150.919 48.9012L155.926 40.3212H152.647L148.049 48.3156C147.698 48.9012 147.112 49.0184 146.351 49.0184H144.389V42.1953C144.389 40.8776 143.832 40.3212 142.515 40.3212H139.557V42.8396H140.816C141.226 42.8396 141.46 43.0445 141.46 43.4838V60.9952Z" fill="#BA2814"/>
<path d="M90.693 57.8912L90.9293 58.0915L91.089 57.903L90.9408 57.7053L90.693 57.8912ZM89.1117 55.7828L89.3595 55.5969L89.1288 55.2894L88.8774 55.5802L89.1117 55.7828ZM87.5011 46.4707H87.1913V46.7805H87.5011V46.4707ZM90.1952 46.4707V46.7805H90.5049V46.4707H90.1952ZM71.759 50.4825C71.759 56.728 76.1863 61.6564 82.5522 61.6564V61.0369C76.5606 61.0369 72.3785 56.4189 72.3785 50.4825H71.759ZM82.5522 61.6564C85.2294 61.6564 87.3208 60.7686 88.7413 59.8817C89.4514 59.4383 89.9951 58.9945 90.3625 58.6602C90.5462 58.493 90.6861 58.3529 90.781 58.2536C90.8284 58.204 90.8646 58.1645 90.8893 58.1369C90.9017 58.1231 90.9112 58.1123 90.9179 58.1047C90.9212 58.1008 90.9239 58.0978 90.9258 58.0956C90.9267 58.0945 90.9275 58.0936 90.9281 58.0929C90.9284 58.0926 90.9286 58.0923 90.9288 58.092C90.9289 58.0919 90.929 58.0918 90.9291 58.0917C90.9292 58.0916 90.9293 58.0915 90.693 57.8912C90.4567 57.6909 90.4567 57.6908 90.4568 57.6908C90.4568 57.6908 90.4569 57.6907 90.4569 57.6907C90.4569 57.6907 90.4569 57.6907 90.4568 57.6908C90.4567 57.6909 90.4564 57.6913 90.4559 57.6918C90.455 57.6929 90.4533 57.6948 90.4509 57.6976C90.4462 57.703 90.4387 57.7116 90.4283 57.7231C90.4076 57.7461 90.3758 57.7809 90.333 57.8257C90.2473 57.9154 90.1177 58.0453 89.9455 58.202C89.6009 58.5156 89.0867 58.9357 88.4132 59.3562C87.0665 60.197 85.0874 61.0369 82.5522 61.0369V61.6564ZM90.9408 57.7053L89.3595 55.5969L88.8639 55.9687L90.4452 58.0771L90.9408 57.7053ZM89.1117 55.7828C88.8774 55.5802 88.8774 55.5801 88.8775 55.5801C88.8775 55.58 88.8776 55.58 88.8776 55.58C88.8776 55.5799 88.8776 55.5799 88.8776 55.58C88.8775 55.58 88.8773 55.5803 88.8769 55.5807C88.8762 55.5815 88.8749 55.583 88.873 55.5852C88.8692 55.5894 88.8631 55.5963 88.8546 55.6055C88.8378 55.6239 88.8118 55.6519 88.7768 55.6881C88.7067 55.7604 88.6007 55.8654 88.4603 55.9921C88.1793 56.2458 87.7616 56.5858 87.2193 56.926C86.1345 57.6067 84.5584 58.2842 82.5815 58.2842V58.9038C84.7042 58.9038 86.3933 58.1757 87.5486 57.4508C88.1264 57.0882 88.5726 56.7254 88.8754 56.452C89.0269 56.3152 89.1429 56.2005 89.2217 56.1191C89.2612 56.0784 89.2913 56.046 89.3121 56.0233C89.3225 56.0119 89.3305 56.0029 89.3362 55.9966C89.339 55.9934 89.3412 55.9908 89.3429 55.989C89.3437 55.988 89.3444 55.9873 89.3449 55.9867C89.3452 55.9864 89.3454 55.9861 89.3456 55.9859C89.3457 55.9858 89.3458 55.9857 89.3458 55.9856C89.3459 55.9855 89.346 55.9854 89.1117 55.7828ZM82.5815 58.2842C78.5611 58.2842 75.424 54.8476 75.424 50.4825H74.8045C74.8045 55.1368 78.1683 58.9038 82.5815 58.9038V58.2842ZM75.424 50.4825C75.424 45.9887 78.5152 43.0029 82.4936 43.0029V42.3834C78.1557 42.3834 74.8045 45.6642 74.8045 50.4825H75.424ZM82.4936 43.0029C83.4975 43.0029 84.7058 43.2163 85.6525 43.632C86.6228 44.0581 87.1913 44.6338 87.1913 45.2994H87.8109C87.8109 44.2372 86.9152 43.5099 85.9016 43.0647C84.8643 42.6093 83.5689 42.3834 82.4936 42.3834V43.0029ZM87.1913 45.2994V46.4707H87.8109V45.2994H87.1913ZM87.5011 46.7805H90.1952V46.1609H87.5011V46.7805ZM90.5049 46.4707V44.4502H89.8854V46.4707H90.5049ZM90.5049 44.4502C90.5049 42.5943 89.1145 41.3947 87.4834 40.6747C85.8429 39.9506 83.8583 39.66 82.4351 39.66V40.2796C83.7938 40.2796 85.6892 40.56 87.2333 41.2415C88.7867 41.9272 89.8854 42.9677 89.8854 44.4502H90.5049ZM82.4351 39.66C76.3442 39.66 71.759 44.3422 71.759 50.4825H72.3785C72.3785 44.6752 76.6955 40.2796 82.4351 40.2796V39.66ZM94.3605 60.9952H94.0507V61.305H94.3605V60.9952ZM97.2888 60.9952V61.305H97.5986V60.9952H97.2888ZM97.2888 42.8396V42.5298H96.9791V42.8396H97.2888ZM112.311 60.9952V61.305H112.621V60.9952H112.311ZM112.311 58.4769H112.621V58.1671H112.311V58.4769ZM92.4571 40.3212V40.0114H92.1473V40.3212H92.4571ZM92.4571 42.8396H92.1473V43.1493H92.4571V42.8396ZM94.3605 42.8396H94.6702V42.5298H94.3605V42.8396ZM94.3605 61.305H97.2888V60.6855H94.3605V61.305ZM97.5986 60.9952V42.8396H96.9791V60.9952H97.5986ZM97.2888 43.1493H106.835V42.5298H97.2888V43.1493ZM106.835 43.1493C106.992 43.1493 107.064 43.1885 107.096 43.2197C107.126 43.249 107.17 43.3172 107.17 43.4838H107.789C107.789 43.2112 107.716 42.9573 107.526 42.7743C107.339 42.5931 107.088 42.5298 106.835 42.5298V43.1493ZM107.17 43.4838V59.1211H107.789V43.4838H107.17ZM107.17 59.1211C107.17 59.8146 107.315 60.3838 107.708 60.7727C108.101 61.1606 108.676 61.305 109.383 61.305V60.6855C108.742 60.6855 108.366 60.5517 108.144 60.332C107.922 60.1132 107.789 59.7454 107.789 59.1211H107.17ZM109.383 61.305H112.311V60.6855H109.383V61.305ZM112.621 60.9952V58.4769H112.001V60.9952H112.621ZM112.311 58.1671H111.052V58.7866H112.311V58.1671ZM111.052 58.1671C110.905 58.1671 110.832 58.1262 110.795 58.0895C110.758 58.0527 110.718 57.9794 110.718 57.8326H110.098C110.098 58.0959 110.174 58.3447 110.357 58.5275C110.54 58.7104 110.789 58.7866 111.052 58.7866V58.1671ZM110.718 57.8326V42.1953H110.098V57.8326H110.718ZM110.718 42.1953C110.718 41.5018 110.572 40.9336 110.184 40.5451C109.795 40.1565 109.227 40.0114 108.534 40.0114V40.631C109.158 40.631 109.527 40.7641 109.746 40.9831C109.965 41.2022 110.098 41.5711 110.098 42.1953H110.718ZM108.534 40.0114H92.4571V40.631H108.534V40.0114ZM92.1473 40.3212V42.8396H92.7668V40.3212H92.1473ZM92.4571 43.1493H94.3605V42.5298H92.4571V43.1493ZM94.0507 42.8396V60.9952H94.6702V42.8396H94.0507ZM113.984 60.9952H113.674V61.305H113.984V60.9952ZM118.464 59.1211L118.155 59.0971L118.155 59.1005L118.464 59.1211ZM119.313 48.1984L119.622 48.2224L119.622 48.2205L119.313 48.1984ZM119.372 45.1237V44.8139H119.057L119.062 45.1286L119.372 45.1237ZM119.43 45.1237L119.726 45.0323L119.659 44.8139H119.43V45.1237ZM120.543 48.1984L120.825 48.0694L120.825 48.0691L120.543 48.1984ZM124.701 57.2763L124.42 57.4053L124.503 57.586H124.701V57.2763ZM127.161 57.2763V57.586H127.36L127.443 57.406L127.161 57.2763ZM131.349 48.1984L131.63 48.3282L131.632 48.3249L131.349 48.1984ZM132.462 45.153V44.8432H132.235L132.166 45.059L132.462 45.153ZM132.52 45.153L132.83 45.1629L132.84 44.8432H132.52V45.153ZM132.579 48.1984L132.888 48.1752L132.887 48.1691L132.579 48.1984ZM133.399 59.1211L133.09 59.1443L133.09 59.1485L133.399 59.1211ZM137.908 60.9952V61.305H138.218V60.9952H137.908ZM137.908 58.4769H138.218V58.1671H137.908V58.4769ZM136.268 57.8326L136.577 57.8106L136.577 57.8079L136.268 57.8326ZM134.863 40.3212L135.172 40.2964L135.149 40.0114H134.863V40.3212ZM131.847 40.3212V40.0114H131.645L131.564 40.1953L131.847 40.3212ZM126.986 51.2439L126.703 51.1179L126.702 51.1201L126.986 51.2439ZM125.961 53.8794V54.1891H126.18L126.253 53.9825L125.961 53.8794ZM125.902 53.8794L125.61 53.9825L125.683 54.1891H125.902V53.8794ZM124.877 51.2439L125.161 51.1201L125.16 51.1179L124.877 51.2439ZM120.016 40.3212L120.299 40.1953L120.217 40.0114H120.016V40.3212ZM117 40.3212V40.0114H116.714L116.691 40.2964L117 40.3212ZM115.594 57.8326L115.286 57.8079L115.285 57.8106L115.594 57.8326ZM113.984 58.4769V58.1671H113.674V58.4769H113.984ZM113.984 61.305H116.59V60.6855H113.984V61.305ZM116.59 61.305C117.285 61.305 117.834 61.1592 118.211 60.7673C118.582 60.3827 118.728 59.8216 118.773 59.1417L118.155 59.1005C118.113 59.7383 117.98 60.1143 117.765 60.3374C117.557 60.5531 117.213 60.6855 116.59 60.6855V61.305ZM118.773 59.1451L119.622 48.2224L119.004 48.1744L118.155 59.0971L118.773 59.1451ZM119.622 48.2205C119.667 47.5951 119.682 46.8181 119.685 46.2017C119.687 45.8926 119.686 45.6221 119.685 45.4289C119.684 45.3323 119.683 45.2549 119.683 45.2017C119.682 45.175 119.682 45.1544 119.682 45.1404C119.682 45.1333 119.682 45.128 119.682 45.1244C119.682 45.1226 119.682 45.1212 119.682 45.1202C119.682 45.1198 119.682 45.1194 119.682 45.1192C119.682 45.119 119.682 45.1189 119.682 45.1189C119.682 45.1188 119.682 45.1188 119.682 45.1188C119.682 45.1188 119.682 45.1187 119.372 45.1237C119.062 45.1286 119.062 45.1286 119.062 45.1286C119.062 45.1286 119.062 45.1286 119.062 45.1286C119.062 45.1287 119.062 45.1287 119.062 45.1288C119.062 45.129 119.062 45.1294 119.062 45.1298C119.062 45.1306 119.062 45.1319 119.062 45.1336C119.062 45.1371 119.062 45.1422 119.062 45.149C119.063 45.1626 119.063 45.1828 119.063 45.209C119.064 45.2614 119.065 45.3378 119.065 45.4334C119.067 45.6245 119.068 45.8921 119.066 46.198C119.062 46.8114 119.048 47.5719 119.004 48.1763L119.622 48.2205ZM119.372 45.4334H119.43V44.8139H119.372V45.4334ZM119.43 45.1237C119.134 45.2151 119.134 45.2151 119.135 45.2151C119.135 45.2151 119.135 45.2152 119.135 45.2152C119.135 45.2153 119.135 45.2154 119.135 45.2155C119.135 45.2158 119.135 45.2162 119.135 45.2167C119.135 45.2177 119.136 45.2192 119.136 45.2212C119.138 45.2251 119.139 45.2309 119.142 45.2384C119.146 45.2535 119.153 45.2757 119.162 45.3043C119.18 45.3614 119.206 45.444 119.239 45.5465C119.305 45.7514 119.398 46.036 119.507 46.3547C119.723 46.9888 120.006 47.7705 120.262 48.3277L120.825 48.0691C120.583 47.5429 120.309 46.7872 120.093 46.1547C119.986 45.8403 119.894 45.5593 119.829 45.357C119.797 45.2558 119.771 45.1744 119.753 45.1184C119.745 45.0904 119.738 45.0688 119.733 45.0542C119.731 45.0469 119.729 45.0413 119.728 45.0377C119.728 45.0358 119.727 45.0344 119.727 45.0335C119.727 45.0331 119.727 45.0328 119.727 45.0325C119.726 45.0324 119.726 45.0324 119.726 45.0323C119.726 45.0323 119.726 45.0323 119.726 45.0323C119.726 45.0323 119.726 45.0323 119.43 45.1237ZM120.262 48.3274L124.42 57.4053L124.983 57.1473L120.825 48.0694L120.262 48.3274ZM124.701 57.586H127.161V56.9665H124.701V57.586ZM127.443 57.406L131.63 48.3282L131.068 48.0687L126.88 57.1465L127.443 57.406ZM131.632 48.3249C131.886 47.7555 132.168 46.9833 132.384 46.36C132.493 46.0469 132.586 45.769 132.652 45.5693C132.685 45.4694 132.711 45.389 132.729 45.3335C132.738 45.3057 132.745 45.2842 132.749 45.2695C132.752 45.2622 132.754 45.2566 132.755 45.2528C132.755 45.2509 132.756 45.2494 132.756 45.2484C132.756 45.2479 132.757 45.2476 132.757 45.2473C132.757 45.2472 132.757 45.2471 132.757 45.247C132.757 45.247 132.757 45.2469 132.757 45.2469C132.757 45.2469 132.757 45.2469 132.462 45.153C132.166 45.059 132.166 45.059 132.166 45.059C132.166 45.059 132.166 45.0591 132.166 45.0591C132.166 45.0591 132.166 45.0592 132.166 45.0593C132.166 45.0595 132.166 45.0598 132.166 45.0603C132.166 45.0612 132.165 45.0625 132.165 45.0643C132.164 45.0679 132.162 45.0733 132.16 45.0804C132.155 45.0946 132.148 45.1156 132.139 45.1429C132.122 45.1974 132.096 45.2767 132.063 45.3754C131.998 45.5728 131.907 45.8476 131.799 46.1568C131.584 46.778 131.309 47.5286 131.066 48.0719L131.632 48.3249ZM132.462 45.4627H132.52V44.8432H132.462V45.4627ZM132.52 45.153C132.211 45.143 132.211 45.143 132.211 45.143C132.211 45.143 132.211 45.1431 132.211 45.1431C132.211 45.1432 132.211 45.1433 132.211 45.1434C132.21 45.1437 132.21 45.144 132.21 45.1445C132.21 45.1454 132.21 45.1468 132.21 45.1486C132.21 45.1523 132.21 45.1576 132.21 45.1645C132.209 45.1784 132.209 45.1988 132.208 45.2252C132.207 45.2779 132.205 45.3544 132.203 45.4499C132.199 45.6408 132.196 45.9082 132.196 46.2145C132.196 46.8245 132.21 47.5977 132.27 48.2278L132.887 48.1691C132.83 47.5692 132.815 46.8197 132.815 46.2145C132.815 45.9131 132.819 45.6497 132.822 45.4618C132.824 45.3679 132.826 45.2929 132.827 45.2415C132.828 45.2158 132.829 45.1961 132.829 45.1828C132.829 45.1761 132.829 45.1711 132.83 45.1678C132.83 45.1661 132.83 45.1649 132.83 45.164C132.83 45.1636 132.83 45.1633 132.83 45.1632C132.83 45.1631 132.83 45.163 132.83 45.163C132.83 45.1629 132.83 45.1629 132.83 45.1629C132.83 45.1629 132.83 45.1629 132.52 45.153ZM132.27 48.2216L133.09 59.1443L133.708 59.0979L132.888 48.1752L132.27 48.2216ZM133.09 59.1485C133.15 59.8237 133.296 60.3838 133.666 60.7673C134.044 61.1598 134.594 61.305 135.302 61.305V60.6855C134.663 60.6855 134.319 60.5525 134.112 60.3374C133.896 60.1132 133.764 59.7362 133.707 59.0937L133.09 59.1485ZM135.302 61.305H137.908V60.6855H135.302V61.305ZM138.218 60.9952V58.4769H137.598V60.9952H138.218ZM137.908 58.1671H136.913V58.7866H137.908V58.1671ZM136.913 58.1671C136.768 58.1671 136.704 58.1276 136.67 58.0932C136.632 58.0537 136.589 57.9727 136.577 57.8106L135.959 57.8547C135.977 58.1026 136.051 58.3437 136.225 58.5238C136.404 58.709 136.647 58.7866 136.913 58.7866V58.1671ZM136.577 57.8079L135.172 40.2964L134.554 40.346L135.96 57.8574L136.577 57.8079ZM134.863 40.0114H131.847V40.631H134.863V40.0114ZM131.564 40.1953L126.703 51.1179L127.269 51.3698L132.13 40.4471L131.564 40.1953ZM126.702 51.1201C126.45 51.6983 126.191 52.363 125.996 52.8809C125.899 53.1403 125.817 53.3639 125.76 53.5227C125.731 53.6021 125.708 53.6653 125.693 53.7088C125.685 53.7305 125.679 53.7473 125.675 53.7587C125.673 53.7644 125.671 53.7688 125.67 53.7717C125.67 53.7732 125.669 53.7743 125.669 53.7751C125.669 53.7755 125.669 53.7758 125.669 53.776C125.669 53.7761 125.669 53.7761 125.669 53.7762C125.669 53.7762 125.669 53.7762 125.669 53.7763C125.669 53.7763 125.669 53.7763 125.961 53.8794C126.253 53.9825 126.253 53.9825 126.253 53.9825C126.253 53.9825 126.253 53.9825 126.253 53.9824C126.253 53.9824 126.253 53.9824 126.253 53.9823C126.253 53.9821 126.253 53.9819 126.253 53.9815C126.253 53.9808 126.254 53.9798 126.254 53.9784C126.255 53.9757 126.257 53.9715 126.259 53.966C126.263 53.9549 126.268 53.9385 126.276 53.9172C126.291 53.8745 126.314 53.8122 126.342 53.7337C126.399 53.5768 126.48 53.3556 126.576 53.0989C126.77 52.5846 127.024 51.9315 127.27 51.3677L126.702 51.1201ZM125.961 53.5696H125.902V54.1891H125.961V53.5696ZM125.902 53.8794C126.194 53.7763 126.194 53.7763 126.194 53.7763C126.194 53.7762 126.194 53.7762 126.194 53.7762C126.194 53.7761 126.194 53.7761 126.194 53.776C126.194 53.7758 126.194 53.7755 126.194 53.7751C126.193 53.7743 126.193 53.7732 126.193 53.7717C126.192 53.7688 126.19 53.7644 126.188 53.7587C126.184 53.7473 126.178 53.7305 126.17 53.7088C126.155 53.6653 126.132 53.6021 126.103 53.5227C126.046 53.3639 125.964 53.1403 125.866 52.8809C125.672 52.363 125.413 51.6983 125.161 51.1201L124.593 51.3677C124.839 51.9315 125.093 52.5846 125.286 53.0989C125.383 53.3556 125.464 53.5768 125.521 53.7337C125.549 53.8122 125.572 53.8745 125.587 53.9172C125.594 53.9385 125.6 53.9549 125.604 53.966C125.606 53.9715 125.608 53.9757 125.609 53.9784C125.609 53.9798 125.609 53.9808 125.61 53.9815C125.61 53.9819 125.61 53.9821 125.61 53.9823C125.61 53.9824 125.61 53.9824 125.61 53.9824C125.61 53.9825 125.61 53.9825 125.61 53.9825C125.61 53.9825 125.61 53.9825 125.902 53.8794ZM125.16 51.1179L120.299 40.1953L119.733 40.4471L124.594 51.3698L125.16 51.1179ZM120.016 40.0114H117V40.631H120.016V40.0114ZM116.691 40.2964L115.286 57.8079L115.903 57.8574L117.309 40.346L116.691 40.2964ZM115.285 57.8106C115.274 57.9727 115.23 58.0537 115.192 58.0932C115.159 58.1276 115.095 58.1671 114.95 58.1671V58.7866C115.216 58.7866 115.459 58.709 115.638 58.5238C115.812 58.3437 115.886 58.1026 115.903 57.8547L115.285 57.8106ZM114.95 58.1671H113.984V58.7866H114.95V58.1671ZM113.674 58.4769V60.9952H114.294V58.4769H113.674ZM141.46 60.9952H141.151V61.305H141.46V60.9952ZM144.389 60.9952V61.305H144.699V60.9952H144.389ZM144.389 51.5074V51.1977H144.079V51.5074H144.389ZM147.991 52.2688L148.268 52.1307L148.265 52.1255L147.991 52.2688ZM151.563 59.4432L151.843 59.3096L151.84 59.3051L151.563 59.4432ZM156.044 60.9952V61.305H156.353V60.9952H156.044ZM156.044 58.4769H156.353V58.1671H156.044V58.4769ZM154.023 57.8034L154.303 57.6702L154.3 57.6648L154.023 57.8034ZM150.919 51.5953L151.196 51.4567L151.195 51.4539L150.919 51.5953ZM149.748 50.3068H149.438V50.5487L149.673 50.6073L149.748 50.3068ZM149.748 50.2483L149.598 49.9768L149.438 50.0651V50.2483H149.748ZM150.919 48.9012L150.651 48.7451L150.65 48.7475L150.919 48.9012ZM155.926 40.3212L156.194 40.4773L156.466 40.0114H155.926V40.3212ZM152.647 40.3212V40.0114H152.467L152.378 40.1668L152.647 40.3212ZM148.049 48.3156L148.315 48.4749L148.318 48.47L148.049 48.3156ZM144.389 49.0184H144.079V49.3281H144.389V49.0184ZM139.557 40.3212V40.0114H139.247V40.3212H139.557ZM139.557 42.8396H139.247V43.1493H139.557V42.8396ZM141.46 61.305H144.389V60.6855H141.46V61.305ZM144.699 60.9952V51.5074H144.079V60.9952H144.699ZM144.389 51.8172H146.146V51.1977H144.389V51.8172ZM146.146 51.8172C146.568 51.8172 146.896 51.8405 147.155 51.9287C147.396 52.011 147.58 52.1508 147.716 52.4121L148.265 52.1255C148.05 51.7133 147.736 51.4724 147.355 51.3424C146.991 51.2183 146.573 51.1977 146.146 51.1977V51.8172ZM147.713 52.4069L151.286 59.5813L151.84 59.3051L148.268 52.1307L147.713 52.4069ZM151.284 59.5769C151.618 60.2763 151.972 60.7364 152.496 61.001C153.004 61.2572 153.629 61.305 154.433 61.305V60.6855C153.626 60.6855 153.138 60.6308 152.775 60.4478C152.429 60.2731 152.152 59.9572 151.843 59.3096L151.284 59.5769ZM154.433 61.305H156.044V60.6855H154.433V61.305ZM156.353 60.9952V58.4769H155.734V60.9952H156.353ZM156.044 58.1671H155.487V58.7866H156.044V58.1671ZM155.487 58.1671C155.133 58.1671 154.893 58.1501 154.711 58.081C154.552 58.0208 154.419 57.9135 154.303 57.6702L153.743 57.9365C153.92 58.3082 154.168 58.5376 154.492 58.6604C154.793 58.7744 155.139 58.7866 155.487 58.7866V58.1671ZM154.3 57.6648L151.196 51.4568L150.642 51.7338L153.746 57.9419L154.3 57.6648ZM151.195 51.4539C150.885 50.8499 150.566 50.4926 150.31 50.2829C150.182 50.1782 150.07 50.1116 149.985 50.0697C149.943 50.0488 149.907 50.0342 149.88 50.0242C149.866 50.0192 149.854 50.0154 149.845 50.0124C149.84 50.011 149.836 50.0098 149.832 50.0088C149.83 50.0082 149.829 50.0078 149.827 50.0074C149.826 50.0072 149.825 50.007 149.825 50.0068C149.824 50.0067 149.824 50.0066 149.824 50.0065C149.824 50.0065 149.823 50.0064 149.823 50.0064C149.823 50.0064 149.823 50.0063 149.748 50.3068C149.673 50.6073 149.672 50.6073 149.672 50.6072C149.672 50.6072 149.672 50.6071 149.672 50.6071C149.671 50.607 149.671 50.607 149.671 50.6069C149.67 50.6067 149.67 50.6066 149.669 50.6065C149.668 50.6062 149.667 50.606 149.667 50.6058C149.665 50.6054 149.664 50.6051 149.664 50.605C149.663 50.6048 149.665 50.6052 149.668 50.6065C149.675 50.6089 149.69 50.6147 149.711 50.6254C149.755 50.6467 149.826 50.688 149.918 50.7627C150.1 50.9117 150.367 51.1986 150.643 51.7366L151.195 51.4539ZM150.057 50.3068V50.2483H149.438V50.3068H150.057ZM149.748 50.2483C149.897 50.5197 149.897 50.5196 149.897 50.5195C149.897 50.5195 149.897 50.5194 149.897 50.5194C149.898 50.5193 149.898 50.5192 149.898 50.5191C149.898 50.5189 149.899 50.5186 149.899 50.5183C149.9 50.5178 149.901 50.5172 149.903 50.5165C149.905 50.5151 149.908 50.5134 149.912 50.5113C149.919 50.5072 149.928 50.5016 149.939 50.4945C149.962 50.4803 149.992 50.4601 150.03 50.4331C150.104 50.3791 150.207 50.298 150.327 50.1837C150.568 49.9548 150.88 49.5943 151.188 49.0549L150.65 48.7475C150.373 49.2331 150.099 49.5461 149.9 49.7345C149.801 49.8288 149.72 49.8923 149.667 49.9307C149.64 49.9499 149.621 49.9629 149.609 49.9703C149.603 49.974 149.599 49.9764 149.597 49.9774C149.596 49.978 149.596 49.9782 149.596 49.9781C149.596 49.978 149.596 49.9779 149.597 49.9777C149.597 49.9776 149.597 49.9775 149.597 49.9773C149.598 49.9772 149.598 49.9772 149.598 49.9771C149.598 49.977 149.598 49.977 149.598 49.977C149.598 49.9769 149.598 49.9768 149.748 50.2483ZM151.187 49.0574L156.194 40.4773L155.659 40.1651L150.651 48.7451L151.187 49.0574ZM155.926 40.0114H152.647V40.631H155.926V40.0114ZM152.378 40.1668L147.781 48.1611L148.318 48.47L152.915 40.4756L152.378 40.1668ZM147.784 48.1562C147.523 48.5899 147.096 48.7086 146.351 48.7086V49.3281C147.128 49.3281 147.872 49.2125 148.315 48.4749L147.784 48.1562ZM146.351 48.7086H144.389V49.3281H146.351V48.7086ZM144.699 49.0184V42.1953H144.079V49.0184H144.699ZM144.699 42.1953C144.699 41.5018 144.553 40.9336 144.165 40.5451C143.776 40.1565 143.208 40.0114 142.515 40.0114V40.631C143.139 40.631 143.508 40.7641 143.727 40.9831C143.946 41.2022 144.079 41.5711 144.079 42.1953H144.699ZM142.515 40.0114H139.557V40.631H142.515V40.0114ZM139.247 40.3212V42.8396H139.867V40.3212H139.247ZM139.557 43.1493H140.816V42.5298H139.557V43.1493ZM140.816 43.1493C140.974 43.1493 141.045 43.1885 141.077 43.2197C141.107 43.249 141.151 43.3172 141.151 43.4838H141.77C141.77 43.2112 141.697 42.9573 141.507 42.7743C141.32 42.5931 141.069 42.5298 140.816 42.5298V43.1493ZM141.151 43.4838V60.9952H141.77V43.4838H141.151Z" fill="#BA2814"/>
<path d="M72.1022 70.6962C72.1022 72.22 73.1791 73.4142 74.7249 73.4142C76.029 73.4142 76.7616 72.5497 76.7616 72.5497L76.366 72.0222C76.366 72.0222 75.7579 72.7255 74.7322 72.7255C73.6773 72.7255 72.8641 71.8244 72.8641 70.6962C72.8641 69.5314 73.67 68.7475 74.7103 68.7475C75.2304 68.7475 75.963 68.9673 75.963 69.3995V69.6926H76.637V69.1871C76.637 68.3519 75.3916 68.0662 74.6956 68.0662C73.2158 68.0662 72.1022 69.2017 72.1022 70.6962ZM77.6791 72.8574C77.6791 73.1871 77.8256 73.3263 78.1553 73.3263H80.4483C80.778 73.3263 80.9172 73.1871 80.9172 72.8574V72.2054H80.2505V72.5351C80.2505 72.6376 80.1919 72.6962 80.0893 72.6962H78.5729C78.4703 72.6962 78.4117 72.6376 78.4117 72.5351V71.0332H80.2285V70.4032H78.4117V68.7841H79.8842C79.9868 68.7841 80.0454 68.8354 80.0454 68.9453V69.275H80.7194V68.623C80.7194 68.2933 80.5802 68.1541 80.2505 68.1541H77.2029V68.7841H77.6791V72.8574ZM81.8644 73.3263H82.597V71.4142H83.6666C84.6189 71.4142 85.2929 70.7548 85.2929 69.7731C85.2929 68.7915 84.6189 68.1541 83.6666 68.1541H81.3882V68.7841H81.8644V73.3263ZM82.597 70.7841V68.7841H83.5567C84.1647 68.7841 84.5384 69.1504 84.5384 69.7731C84.5384 70.3959 84.1647 70.7841 83.5493 70.7841H82.597ZM86.1498 73.3263H86.8824V68.7841H88.2743C88.3769 68.7841 88.4355 68.8354 88.4355 68.9453V69.275H89.1022V68.623C89.1022 68.2933 88.963 68.1541 88.6333 68.1541H85.6736V68.7841H86.1498V73.3263ZM89.9203 73.3263H90.6456L92.9166 70.0149C93.0998 69.7365 93.3562 69.2603 93.3562 69.2603H93.3709C93.3709 69.2603 93.3269 69.7292 93.3269 70.0149V72.8574C93.3269 73.1871 93.4661 73.3263 93.8031 73.3263H94.5357V72.6962H94.2207C94.1181 72.6962 94.0595 72.6376 94.0595 72.5351V68.1541H93.3416L91.0851 71.4508C90.902 71.7292 90.6236 72.1981 90.6236 72.1981H90.6089C90.6089 72.1981 90.6529 71.7512 90.6529 71.4581V68.623C90.6529 68.2933 90.5137 68.1541 90.184 68.1541H89.4441V68.7841H89.7591C89.8617 68.7841 89.9203 68.8354 89.9203 68.9453V73.3263ZM95.5005 72.8574C95.5005 73.1871 95.647 73.3263 95.9767 73.3263H98.2697C98.5994 73.3263 98.7386 73.1871 98.7386 72.8574V72.2054H98.0719V72.5351C98.0719 72.6376 98.0133 72.6962 97.9108 72.6962H96.3943C96.2917 72.6962 96.2331 72.6376 96.2331 72.5351V71.0332H98.05V70.4032H96.2331V68.7841H97.7056C97.8082 68.7841 97.8668 68.8354 97.8668 68.9453V69.275H98.5408V68.623C98.5408 68.2933 98.4016 68.1541 98.0719 68.1541H95.0243V68.7841H95.5005V72.8574ZM99.6858 72.8574C99.6858 73.1871 99.8323 73.3263 100.162 73.3263H101.517C102.426 73.3263 103.18 72.8281 103.18 71.8537C103.18 71.275 102.873 70.7622 102.33 70.601V70.5863C102.675 70.4178 102.975 70.0369 102.975 69.4728C102.975 68.6376 102.345 68.1541 101.473 68.1541H99.2096V68.7841H99.6858V72.8574ZM100.411 70.3299V68.7841H101.473C101.957 68.7841 102.235 69.0918 102.235 69.546C102.235 70.0002 101.942 70.3299 101.481 70.3299H100.411ZM100.411 72.5351V70.9307H101.561C102.089 70.9307 102.433 71.2896 102.433 71.8171C102.433 72.3446 102.103 72.6962 101.561 72.6962H100.572C100.47 72.6962 100.411 72.6376 100.411 72.5351ZM103.724 70.7035C103.724 72.2274 104.882 73.4142 106.376 73.4142C107.871 73.4142 109.035 72.2274 109.035 70.7035C109.035 69.2164 107.871 68.0662 106.376 68.0662C104.882 68.0662 103.724 69.2164 103.724 70.7035ZM104.486 70.7035C104.486 69.5973 105.329 68.7475 106.376 68.7475C107.424 68.7475 108.274 69.5973 108.274 70.7035C108.274 71.8464 107.424 72.7255 106.376 72.7255C105.329 72.7255 104.486 71.8464 104.486 70.7035ZM109.717 71.5534H111.856V70.9233H109.717V71.5534ZM113.007 73.3263H113.74V68.7841H116.128C116.231 68.7841 116.289 68.8354 116.289 68.9453V72.8574C116.289 73.1871 116.428 73.3263 116.765 73.3263H117.498V72.6962H117.183C117.08 72.6962 117.022 72.6376 117.022 72.5351V68.623C117.022 68.2933 116.883 68.1541 116.553 68.1541H112.531V68.7841H113.007V73.3263ZM117.997 70.7035C117.997 72.2274 119.155 73.4142 120.649 73.4142C122.144 73.4142 123.308 72.2274 123.308 70.7035C123.308 69.2164 122.144 68.0662 120.649 68.0662C119.155 68.0662 117.997 69.2164 117.997 70.7035ZM118.759 70.7035C118.759 69.5973 119.601 68.7475 120.649 68.7475C121.697 68.7475 122.546 69.5973 122.546 70.7035C122.546 71.8464 121.697 72.7255 120.649 72.7255C119.601 72.7255 118.759 71.8464 118.759 70.7035ZM123.814 70.6962C123.814 72.22 124.891 73.4142 126.436 73.4142C127.74 73.4142 128.473 72.5497 128.473 72.5497L128.077 72.0222C128.077 72.0222 127.469 72.7255 126.444 72.7255C125.389 72.7255 124.576 71.8244 124.576 70.6962C124.576 69.5314 125.381 68.7475 126.422 68.7475C126.942 68.7475 127.674 68.9673 127.674 69.3995V69.6926H128.348V69.1871C128.348 68.3519 127.103 68.0662 126.407 68.0662C124.927 68.0662 123.814 69.2017 123.814 70.6962ZM128.76 73.3263H129.163C129.53 73.3263 129.647 73.2384 129.771 72.9014L130.16 71.8391H132.057L132.445 72.9014C132.57 73.2384 132.687 73.3263 133.054 73.3263H133.456V72.6962H133.354C133.222 72.6962 133.156 72.6669 133.112 72.5351L131.493 68.1541H130.724L129.105 72.5351C129.061 72.6669 128.995 72.6962 128.863 72.6962H128.76V73.3263ZM130.336 71.2237L130.9 69.6486C130.988 69.3775 131.097 68.9233 131.097 68.9233H131.112C131.112 68.9233 131.229 69.3775 131.317 69.6486L131.881 71.2237H130.336ZM133.618 73.1578V74.3519H134.292V73.4874C134.292 73.3775 134.343 73.3263 134.446 73.3263H137.83C137.933 73.3263 137.984 73.3849 137.984 73.4874V74.3519H138.658V73.1578C138.658 72.8208 138.526 72.6962 138.197 72.6962H138.036V68.623C138.036 68.2933 137.896 68.1541 137.567 68.1541H134.526V68.7841H134.995V69.2164C134.995 70.3446 134.915 71.6852 134.197 72.6962H134.079C133.75 72.6962 133.618 72.8208 133.618 73.1578ZM134.959 72.6962C135.574 71.7658 135.699 70.3885 135.699 69.2603V68.7841H137.149C137.252 68.7841 137.31 68.8354 137.31 68.9453V72.6962H134.959ZM139.024 70.6962C139.024 72.22 140.101 73.4142 141.646 73.4142C142.95 73.4142 143.683 72.5497 143.683 72.5497L143.287 72.0222C143.287 72.0222 142.679 72.7255 141.654 72.7255C140.599 72.7255 139.786 71.8244 139.786 70.6962C139.786 69.5314 140.591 68.7475 141.632 68.7475C142.152 68.7475 142.885 68.9673 142.885 69.3995V69.6926H143.559V69.1871C143.559 68.3519 142.313 68.0662 141.617 68.0662C140.137 68.0662 139.024 69.2017 139.024 70.6962ZM144.608 73.3263H145.341V70.9526H145.78C145.993 70.9526 146.154 70.9746 146.242 71.1431L147.135 72.938C147.297 73.275 147.45 73.3263 147.853 73.3263H148.256V72.6962H148.117C147.941 72.6962 147.824 72.6816 147.751 72.5277L146.974 70.9746C146.828 70.6889 146.681 70.6523 146.681 70.6523V70.6376C146.681 70.6376 146.828 70.557 146.974 70.3006L148.227 68.1541H147.406L146.256 70.1541C146.168 70.3006 146.022 70.3299 145.831 70.3299H145.341V68.623C145.341 68.2933 145.201 68.1541 144.872 68.1541H144.132V68.7841H144.447C144.549 68.7841 144.608 68.8354 144.608 68.9453V73.3263ZM149.094 73.3263H149.819L152.09 70.0149C152.273 69.7365 152.53 69.2603 152.53 69.2603H152.544C152.544 69.2603 152.5 69.7292 152.5 70.0149V72.8574C152.5 73.1871 152.639 73.3263 152.976 73.3263H153.709V72.6962H153.394C153.291 72.6962 153.233 72.6376 153.233 72.5351V68.1541H152.515L150.259 71.4508C150.075 71.7292 149.797 72.1981 149.797 72.1981H149.782C149.782 72.1981 149.826 71.7512 149.826 71.4581V68.623C149.826 68.2933 149.687 68.1541 149.357 68.1541H148.617V68.7841H148.933C149.035 68.7841 149.094 68.8354 149.094 68.9453V73.3263ZM156.725 67.9123C157.297 67.9123 157.809 67.5753 157.809 66.9746V66.8647H157.245V66.9599C157.245 67.2896 156.982 67.4508 156.725 67.4508C156.469 67.4508 156.212 67.2896 156.212 66.9673V66.8647H155.641V66.9746C155.641 67.5753 156.161 67.9123 156.725 67.9123ZM154.681 73.3263H155.406L157.678 70.0149C157.861 69.7365 158.117 69.2603 158.117 69.2603H158.132C158.132 69.2603 158.088 69.7292 158.088 70.0149V72.8574C158.088 73.1871 158.227 73.3263 158.564 73.3263H159.297V72.6962H158.982C158.879 72.6962 158.82 72.6376 158.82 72.5351V68.1541H158.102L155.846 71.4508C155.663 71.7292 155.385 72.1981 155.385 72.1981H155.37C155.37 72.1981 155.414 71.7512 155.414 71.4581V68.623C155.414 68.2933 155.275 68.1541 154.945 68.1541H154.205V68.7841H154.52C154.623 68.7841 154.681 68.8354 154.681 68.9453V73.3263ZM72.0143 82.3263H72.6663C72.996 82.3263 73.1132 82.1871 73.1352 81.8574L73.3476 79.1248C73.3696 78.8171 73.3623 78.3556 73.3623 78.3556H73.3769C73.3769 78.3556 73.5308 78.8537 73.6553 79.1248L74.6956 81.3959H75.311L76.3586 79.1248C76.4832 78.8464 76.637 78.3629 76.637 78.3629H76.6517C76.6517 78.3629 76.637 78.8171 76.6663 79.1248L76.8714 81.8574C76.9008 82.1871 77.0106 82.3263 77.3476 82.3263H77.9997V81.6962H77.7506C77.648 81.6962 77.5967 81.6376 77.5894 81.5351L77.2377 77.1541H76.4832L75.267 79.8867C75.1425 80.1724 75.0106 80.546 75.0106 80.546H74.996C74.996 80.546 74.8641 80.1724 74.7396 79.8867L73.5235 77.1541H72.7689L72.4172 81.5351C72.4099 81.6376 72.3586 81.6962 72.2561 81.6962H72.0143V82.3263ZM78.3023 82.3263H78.6612C79.0642 82.3263 79.196 82.2603 79.3792 81.9307L80.1338 80.6486C80.2876 80.3849 80.3828 80.3409 80.6612 80.3409H81.2766V82.3263H82.0092V77.7841H82.4854V77.1541H80.3023C79.3352 77.1541 78.6246 77.7402 78.6246 78.7072C78.6246 79.7915 79.5843 80.1065 79.7162 80.1138V80.1285C79.7162 80.1285 79.5623 80.1944 79.4524 80.3775L78.7711 81.5277C78.6905 81.6742 78.5733 81.6962 78.3975 81.6962H78.3023V82.3263ZM80.3828 79.7109C79.8114 79.7109 79.3792 79.3446 79.3792 78.7365C79.3792 78.1358 79.7748 77.7841 80.3828 77.7841H81.2766V79.7109H80.3828ZM82.9839 79.6962C82.9839 81.22 84.0609 82.4142 85.6066 82.4142C86.9107 82.4142 87.6433 81.5497 87.6433 81.5497L87.2477 81.0222C87.2477 81.0222 86.6396 81.7255 85.614 81.7255C84.559 81.7255 83.7458 80.8244 83.7458 79.6962C83.7458 78.5314 84.5517 77.7475 85.592 77.7475C86.1121 77.7475 86.8447 77.9673 86.8447 78.3995V78.6926H87.5187V78.1871C87.5187 77.3519 86.2733 77.0662 85.5773 77.0662C84.0975 77.0662 82.9839 78.2017 82.9839 79.6962ZM88.0419 79.7035C88.0419 81.2274 89.1994 82.4142 90.6939 82.4142C92.1884 82.4142 93.3532 81.2274 93.3532 79.7035C93.3532 78.2164 92.1884 77.0662 90.6939 77.0662C89.1994 77.0662 88.0419 78.2164 88.0419 79.7035ZM88.8038 79.7035C88.8038 78.5973 89.6463 77.7475 90.6939 77.7475C91.7415 77.7475 92.5913 78.5973 92.5913 79.7035C92.5913 80.8464 91.7415 81.7255 90.6939 81.7255C89.6463 81.7255 88.8038 80.8464 88.8038 79.7035ZM94.3274 82.3263H95.06V79.9526H95.4995C95.712 79.9526 95.8732 79.9746 95.9611 80.1431L96.8548 81.938C97.016 82.275 97.1699 82.3263 97.5728 82.3263H97.9757V81.6962H97.8365C97.6607 81.6962 97.5435 81.6816 97.4702 81.5277L96.6937 79.9746C96.5471 79.6889 96.4006 79.6523 96.4006 79.6523V79.6376C96.4006 79.6376 96.5471 79.557 96.6937 79.3006L97.9464 77.1541H97.1259L95.9757 79.1541C95.8878 79.3006 95.7413 79.3299 95.5508 79.3299H95.06V77.623C95.06 77.2933 94.9208 77.1541 94.5911 77.1541H93.8512V77.7841H94.1662C94.2688 77.7841 94.3274 77.8354 94.3274 77.9453V82.3263ZM98.2081 79.7035C98.2081 81.2274 99.3657 82.4142 100.86 82.4142C102.355 82.4142 103.52 81.2274 103.52 79.7035C103.52 78.2164 102.355 77.0662 100.86 77.0662C99.3657 77.0662 98.2081 78.2164 98.2081 79.7035ZM98.9701 79.7035C98.9701 78.5973 99.8125 77.7475 100.86 77.7475C101.908 77.7475 102.758 78.5973 102.758 79.7035C102.758 80.8464 101.908 81.7255 100.86 81.7255C99.8125 81.7255 98.9701 80.8464 98.9701 79.7035ZM103.937 82.3263H104.589C104.919 82.3263 105.036 82.1871 105.058 81.8574L105.27 79.1248C105.292 78.8171 105.285 78.3556 105.285 78.3556H105.3C105.3 78.3556 105.453 78.8537 105.578 79.1248L106.618 81.3959H107.234L108.281 79.1248C108.406 78.8464 108.56 78.3629 108.56 78.3629H108.574C108.574 78.3629 108.56 78.8171 108.589 79.1248L108.794 81.8574C108.823 82.1871 108.933 82.3263 109.27 82.3263H109.922V81.6962H109.673C109.571 81.6962 109.519 81.6376 109.512 81.5351L109.16 77.1541H108.406L107.19 79.8867C107.065 80.1724 106.933 80.546 106.933 80.546H106.919C106.919 80.546 106.787 80.1724 106.662 79.8867L105.446 77.1541H104.691L104.34 81.5351C104.332 81.6376 104.281 81.6962 104.179 81.6962H103.937V82.3263ZM110.804 81.8574C110.804 82.1871 110.95 82.3263 111.28 82.3263H112.496C113.448 82.3263 114.232 81.8208 114.232 80.7805C114.232 79.6962 113.368 79.2786 112.496 79.2786H111.536V77.7841H112.994C113.097 77.7841 113.155 77.8354 113.155 77.9453V78.275H113.822V77.623C113.822 77.2933 113.683 77.1541 113.353 77.1541H110.327V77.7841H110.804V81.8574ZM111.536 81.5497V79.894H112.54C113.119 79.894 113.478 80.2383 113.478 80.7951C113.478 81.3519 113.119 81.7109 112.54 81.7109H111.697C111.595 81.7109 111.536 81.6596 111.536 81.5497ZM115.161 82.3263H115.886L118.157 79.0149C118.34 78.7365 118.597 78.2603 118.597 78.2603H118.611C118.611 78.2603 118.567 78.7292 118.567 79.0149V81.8574C118.567 82.1871 118.707 82.3263 119.044 82.3263H119.776V81.6962H119.461C119.359 81.6962 119.3 81.6376 119.3 81.5351V77.1541H118.582L116.326 80.4508C116.142 80.7292 115.864 81.1981 115.864 81.1981H115.849C115.849 81.1981 115.893 80.7512 115.893 80.4581V77.623C115.893 77.2933 115.754 77.1541 115.424 77.1541H114.685V77.7841H115C115.102 77.7841 115.161 77.8354 115.161 77.9453V82.3263ZM120.748 82.3263H121.481V80.0552H124.111V82.3263H124.844V77.9453C124.844 77.8354 124.902 77.7841 125.005 77.7841H125.32V77.1541H124.587C124.25 77.1541 124.111 77.2933 124.111 77.623V79.4325H121.481V77.623C121.481 77.2933 121.342 77.1541 121.012 77.1541H120.272V77.7841H120.587C120.69 77.7841 120.748 77.8354 120.748 77.9453V82.3263ZM125.613 82.3263H126.016C126.382 82.3263 126.499 82.2384 126.624 81.9014L127.012 80.8391H128.909L129.298 81.9014C129.422 82.2384 129.539 82.3263 129.906 82.3263H130.309V81.6962H130.206C130.074 81.6962 130.008 81.6669 129.964 81.5351L128.345 77.1541H127.576L125.957 81.5351C125.913 81.6669 125.847 81.6962 125.715 81.6962H125.613V82.3263ZM127.188 80.2237L127.752 78.6486C127.84 78.3775 127.95 77.9233 127.95 77.9233H127.964C127.964 77.9233 128.081 78.3775 128.169 78.6486L128.733 80.2237H127.188ZM131.795 82.3263H132.527V77.7841H133.567C133.67 77.7841 133.729 77.8354 133.729 77.9453V78.275H134.381V77.5937C134.381 77.264 134.271 77.1541 133.941 77.1541H130.381C130.051 77.1541 129.941 77.264 129.941 77.5937V78.275H130.6V77.9453C130.6 77.8354 130.652 77.7841 130.762 77.7841H131.795V82.3263Z" fill="#454545"/>
<path d="M54.34 15.0428C53.6461 16.1641 52.6363 17.0996 51.4096 17.6881C51.3229 17.7315 51.23 17.7501 51.137 17.7501C50.9078 17.7501 50.6848 17.62 50.5795 17.397C50.4308 17.0872 50.5609 16.7155 50.8707 16.5668C51.6884 16.1765 52.3823 15.6004 52.9213 14.9065H52.9275C53.5965 13.8967 53.9868 12.6824 53.9868 11.3814V11.3752C53.9868 7.85634 51.137 5.00654 47.6182 5.00654H37.5386C35.141 5.00654 33.2019 3.06124 33.2019 0.663696V4.12682C33.2019 6.80315 35.3702 8.97148 38.0404 8.97148H44.5887C46.2181 8.97148 47.5934 10.2539 47.6244 11.8832C47.6368 12.7196 47.3022 13.4878 46.7508 14.033C46.218 14.5719 45.4746 14.9065 44.6569 14.9065H43.7276C42.5567 14.9065 41.4168 15.3216 40.5185 16.0836L33.1214 22.3531C32.6072 22.7868 32.4461 23.5178 32.7373 24.125L33.6851 26.1322C33.9329 26.6526 34.4533 26.981 35.0295 26.981H46.8747C49.0802 26.981 50.8707 28.7776 50.8707 30.9831V31.7637C50.8707 32.1044 50.5981 32.3832 50.2511 32.3832C49.9104 32.3832 49.6316 32.1044 49.6316 31.7637V30.9831C49.6316 29.4652 48.3926 28.2262 46.8747 28.2262H41.5035V31.4043C41.5035 33.0832 40.6609 34.6506 39.2484 35.5675L28.444 42.6053C28.1218 42.8159 27.7501 42.9274 27.3598 42.9274H7.90686C4.73491 42.9088 2.1577 40.2697 2.23824 37.073C2.31258 33.9568 4.93316 31.5035 8.04935 31.5035H15.5951C18.8166 31.5035 21.5115 28.951 21.5735 25.7357C21.6354 22.4399 18.9777 19.7388 15.6942 19.7388H3.37196C2.84537 19.7388 2.4179 20.1662 2.4179 20.6928V21.0459C2.4179 21.3619 2.57278 21.6593 2.83298 21.8327L5.76951 23.3134C6.14742 23.4992 6.5625 23.5984 6.98377 23.5984H8.63789C9.09014 23.5984 9.5362 23.4869 9.93269 23.27L11.5558 22.3841C11.878 22.1177 12.2869 21.9752 12.7081 21.9752H15.6199C17.6024 21.9752 19.2813 23.5302 19.337 25.5127C19.399 27.5695 17.7449 29.267 15.6942 29.267H8.07413C3.72509 29.267 0.094697 32.6991 0.00176877 37.0482C-0.0911594 41.4777 3.48967 45.1391 7.90066 45.1639H16.2642C17.1439 45.1639 17.6519 46.1675 17.1315 46.8738C16.3757 47.896 15.8058 49.0235 15.4217 50.2006C15.0375 51.3777 14.8393 52.6105 14.8393 53.8496C14.8393 55.1258 15.0499 56.4144 15.4774 57.6596C15.3163 61.7051 14.3065 64.5239 10.4407 67.2994C9.67249 70.0129 9.32556 71.9396 10.2796 76.7471C11.4815 78.8968 13.2409 81.3006 13.2409 81.3006H20.0433C20.0433 81.3006 16.9085 77.5153 16.512 76.8648C15.6571 75.4585 14.8269 73.6495 15.0128 72.8441C15.0128 72.8441 14.7773 69.7465 21.462 65.4099C25.1853 62.9937 29.5281 61.6927 33.9701 61.6927H38.5979L37.1792 57.9818C35.9712 54.816 35.364 51.5016 35.364 48.119V45.1825C35.364 44.8418 35.6366 44.563 35.9836 44.563C36.3243 44.563 36.6031 44.8418 36.6031 45.1825V48.119C36.6031 51.3467 37.1854 54.5187 38.3377 57.5357L41.8876 66.8224C43.2443 70.3908 43.3992 71.2395 42.5629 74.9691L45.1958 81.3687H52.6363C52.6239 81.3501 48.8882 75.4771 48.8882 69.6102C48.8882 57.5048 63.2487 51.3653 63.2487 51.3653V25.5003C63.2487 20.222 59.3891 15.8482 54.34 15.0428ZM44.8117 18.2457C44.3099 18.7971 43.7028 19.1874 42.885 19.2741C42.6868 19.2989 42.5195 19.144 42.5195 18.9458V18.89C42.5195 18.5802 42.408 18.2829 42.2469 18.0227C42.1602 17.8802 42.0858 17.5085 42.3956 17.1801C42.408 17.1615 42.4328 17.1554 42.4514 17.1554C42.4823 17.1554 42.5195 17.1801 42.5195 17.2235C42.5195 17.4899 42.7301 17.7005 42.9903 17.7005H44.5701C44.8551 17.7005 44.9976 18.0351 44.8117 18.2457ZM27.4837 14.9065C25.0862 14.9065 23.1409 12.9612 23.1409 10.5636V14.0268C23.1409 16.7031 25.3092 18.8714 27.9855 18.8714H35.3083L39.7193 15.1357C39.8122 15.0552 39.9051 14.9808 40.0042 14.9065H27.4837ZM27.5767 74.0584C26.5111 72.0078 26.6969 70.7811 28.0413 68.904L32.8612 62.9627C29.0635 63.1548 25.3774 64.3567 22.1373 66.4568C21.7594 66.6985 21.4 66.9401 21.0717 67.1755L21.0345 68.6871C20.9788 70.7192 21.3443 72.745 22.1125 74.6345C22.3913 75.316 22.7196 76.0408 23.1037 76.7471C24.9623 78.8597 25.6004 81.3006 25.6004 81.3006H32.4089C31.4053 79.4854 29.6025 77.9799 29.0883 76.9887L27.5767 74.0584ZM59.7298 81.3006H67.1703L65.5471 78.1038C63.1248 72.5963 63.0628 59.797 63.2425 52.6787L62.7964 52.9575C61.5264 53.6018 59.1536 54.9399 56.8119 56.941C55.0462 58.4526 53.6213 60.0386 52.5558 61.6927C60.4608 66.4816 60.0148 77.4162 59.8909 79.0889L59.7298 81.3006Z" fill="#454545"/>
</svg>
