<svg width="14" height="14" viewBox="0 0 14 14" fill="none" xmlns="http://www.w3.org/2000/svg">
<path d="M7.63236 11.6176C8.85249 12.2317 10.2782 12.6831 11.9383 12.8978C12.5111 12.9718 13 12.511 13 11.9334V10.7808C13 10.3219 12.6877 9.92193 12.2425 9.81063L10.5493 9.38732C10.2085 9.30213 9.84802 9.40198 9.59964 9.65036L7.63236 11.6176ZM7.63236 11.6176C5.29562 10.4416 3.71279 8.66874 2.68087 6.81913M2.68087 6.81913C1.75475 5.15912 1.27237 3.43726 1.08699 2.02943C1.01319 1.46893 1.46855 1 2.03389 1H3.1802C3.65688 1 4.06729 1.33646 4.16078 1.80388L4.64504 4.22521C4.71061 4.55307 4.60799 4.89201 4.37157 5.12843L2.68087 6.81913Z" stroke="#D1232A" stroke-width="1.5"/>
</svg>
