<svg width="67" height="53" viewBox="0 0 67 53" fill="none" xmlns="http://www.w3.org/2000/svg">
<path d="M36.85 39.3545C36.85 31.5759 39.4118 24.1269 44.5353 17.0075C49.7902 9.88805 56.95 4.2189 66.0147 0L67 3.16417C61.2196 6.32835 56.2931 10.2177 52.2206 14.8321C48.2794 19.4465 46.1118 24.3246 45.7176 29.4664C47.4255 27.8843 49.2647 26.6318 51.2353 25.709C53.3373 24.6542 55.4392 24.1269 57.5412 24.1269C60.5627 24.1269 62.8618 24.9838 64.4382 26.6978C66.1461 28.2798 67 30.5211 67 33.4216C67 36.7177 66.1461 39.8818 64.4382 42.9142C62.7304 45.8147 60.4314 48.2537 57.5412 50.2313C54.7824 52.0771 51.7608 53 48.4765 53C44.6667 53 41.7765 51.8794 39.8059 49.6381C37.8353 47.2649 36.85 43.8371 36.85 39.3545ZM0 39.3545C0 31.5759 2.62745 24.1269 7.88235 17.0075C13.1373 9.88805 20.2971 4.2189 29.3618 0L30.3471 3.16417C24.4353 6.32835 19.5088 10.2177 15.5676 14.8321C11.6265 19.4465 9.45882 24.3246 9.06471 29.4664C10.7725 27.8843 12.6118 26.6318 14.5824 25.709C16.5529 24.6542 18.5892 24.1269 20.6912 24.1269C23.8441 24.1269 26.2088 24.9838 27.7853 26.6978C29.3618 28.2798 30.15 30.5211 30.15 33.4216C30.15 36.7177 29.2961 39.8818 27.5882 42.9142C25.8804 45.8147 23.6471 48.2537 20.8882 50.2313C18.1294 52.0771 15.0422 53 11.6265 53C7.81667 53 4.92647 51.8794 2.95588 49.6381C0.985294 47.2649 0 43.8371 0 39.3545Z" fill="#D1232A"/>
</svg>
