<svg width="40" height="40" viewBox="0 0 40 40" fill="none" xmlns="http://www.w3.org/2000/svg">
<circle cx="20" cy="20" r="20" transform="matrix(-1 0 0 1 40 0)" fill="#D1232A"/>
<path d="M20.5303 22.5303C20.2374 22.8232 19.7626 22.8232 19.4697 22.5303L14.6967 17.7574C14.4038 17.4645 14.4038 16.9896 14.6967 16.6967C14.9896 16.4038 15.4645 16.4038 15.7574 16.6967L20 20.9393L24.2426 16.6967C24.5355 16.4038 25.0104 16.4038 25.3033 16.6967C25.5962 16.9896 25.5962 17.4645 25.3033 17.7574L20.5303 22.5303ZM20.75 3.27835e-08L20.75 22L19.25 22L19.25 -3.27835e-08L20.75 3.27835e-08Z" fill="white"/>
</svg>
