<svg width="479" height="653" viewBox="0 0 479 653" fill="none" xmlns="http://www.w3.org/2000/svg">
<path d="M173.708 483.944C140.972 439.341 118.289 387.607 105.66 328.742C93.0318 269.877 102.558 218.362 142.228 171.155C181.897 123.947 233.016 96.1413 291.947 123.543C350.877 150.945 411.022 163.828 472.382 162.193C533.743 160.558 575.305 189.962 597.07 250.404C618.834 310.847 606.051 360.441 558.72 399.187C511.389 437.932 471.812 481.522 439.989 529.955C408.166 578.389 364.014 593.98 307.533 576.728C251.052 559.476 206.444 528.548 173.708 483.944Z" stroke="#D1232A"/>
<ellipse cx="7" cy="7" rx="7" ry="7" transform="matrix(-4.37114e-08 1 1 4.37114e-08 410 549)" fill="#D1232A"/>
</svg>
